<mxfile modified="2022-11-29T23:50:37.521Z" host="app.diagrams.net" agent="5.0 (Macintosh; Intel Mac OS X 10_15_7) AppleWebKit/605.1.15 (KHTML, like Gecko) Version/16.1 Safari/605.1.15" etag="R2iA8UQTzkBqRYI4agYc" version="20.5.3" type="github" pages="12">
  <diagram id="VjomX15xuYtD5MLgN6QB" name="Agenda">
    <mxGraphModel dx="1084" dy="699" grid="1" gridSize="10" guides="1" tooltips="1" connect="1" arrows="1" fold="1" page="1" pageScale="1" pageWidth="850" pageHeight="1100" math="0" shadow="0">
      <root>
        <mxCell id="0" />
        <mxCell id="1" parent="0" />
        <mxCell id="RGwa3ZNCP71L5T_SxQl2-1" value="Agenda" style="text;html=1;strokeColor=none;fillColor=none;align=center;verticalAlign=middle;whiteSpace=wrap;rounded=0;shadow=0;fontSize=18;" parent="1" vertex="1">
          <mxGeometry x="160" y="120" width="60" height="30" as="geometry" />
        </mxCell>
        <mxCell id="RGwa3ZNCP71L5T_SxQl2-2" value="Meeting Kick-off" style="text;html=1;strokeColor=none;fillColor=none;align=left;verticalAlign=middle;whiteSpace=wrap;rounded=0;shadow=0;fontSize=18;" parent="1" vertex="1">
          <mxGeometry x="160" y="210" width="480" height="30" as="geometry" />
        </mxCell>
        <mxCell id="RGwa3ZNCP71L5T_SxQl2-6" value="Requirements &amp;amp; Current State" style="text;html=1;strokeColor=none;fillColor=none;align=left;verticalAlign=middle;whiteSpace=wrap;rounded=0;shadow=0;fontSize=18;" parent="1" vertex="1">
          <mxGeometry x="160" y="280" width="480" height="30" as="geometry" />
        </mxCell>
        <mxCell id="RGwa3ZNCP71L5T_SxQl2-7" value="Solutions Architecture / Future State" style="text;html=1;strokeColor=none;fillColor=none;align=left;verticalAlign=middle;whiteSpace=wrap;rounded=0;shadow=0;fontSize=18;" parent="1" vertex="1">
          <mxGeometry x="160" y="510" width="480" height="30" as="geometry" />
        </mxCell>
        <mxCell id="RGwa3ZNCP71L5T_SxQl2-8" value="Summary &amp;amp; Next Steps" style="text;html=1;strokeColor=none;fillColor=none;align=left;verticalAlign=middle;whiteSpace=wrap;rounded=0;shadow=0;fontSize=18;" parent="1" vertex="1">
          <mxGeometry x="160" y="707" width="480" height="30" as="geometry" />
        </mxCell>
        <mxCell id="RGwa3ZNCP71L5T_SxQl2-9" value="Conceptual" style="text;html=1;strokeColor=none;fillColor=none;align=left;verticalAlign=middle;whiteSpace=wrap;rounded=0;shadow=0;fontSize=18;" parent="1" vertex="1">
          <mxGeometry x="200" y="550" width="480" height="30" as="geometry" />
        </mxCell>
        <mxCell id="RGwa3ZNCP71L5T_SxQl2-10" value="Specific" style="text;html=1;strokeColor=none;fillColor=none;align=left;verticalAlign=middle;whiteSpace=wrap;rounded=0;shadow=0;fontSize=18;" parent="1" vertex="1">
          <mxGeometry x="200" y="590" width="480" height="30" as="geometry" />
        </mxCell>
        <mxCell id="RGwa3ZNCP71L5T_SxQl2-11" value="High-level requirements" style="text;html=1;strokeColor=none;fillColor=none;align=left;verticalAlign=middle;whiteSpace=wrap;rounded=0;shadow=0;fontSize=18;" parent="1" vertex="1">
          <mxGeometry x="200" y="320" width="480" height="30" as="geometry" />
        </mxCell>
        <mxCell id="RGwa3ZNCP71L5T_SxQl2-12" value="Current state" style="text;html=1;strokeColor=none;fillColor=none;align=left;verticalAlign=middle;whiteSpace=wrap;rounded=0;shadow=0;fontSize=18;" parent="1" vertex="1">
          <mxGeometry x="200" y="360" width="480" height="30" as="geometry" />
        </mxCell>
        <mxCell id="RGwa3ZNCP71L5T_SxQl2-13" value="What does success look like?" style="text;html=1;strokeColor=none;fillColor=none;align=left;verticalAlign=middle;whiteSpace=wrap;rounded=0;shadow=0;fontSize=18;" parent="1" vertex="1">
          <mxGeometry x="200" y="400" width="480" height="30" as="geometry" />
        </mxCell>
        <mxCell id="RGwa3ZNCP71L5T_SxQl2-14" value="Architectural requirements" style="text;html=1;strokeColor=none;fillColor=none;align=left;verticalAlign=middle;whiteSpace=wrap;rounded=0;shadow=0;fontSize=18;" parent="1" vertex="1">
          <mxGeometry x="200" y="440" width="480" height="30" as="geometry" />
        </mxCell>
        <mxCell id="RGwa3ZNCP71L5T_SxQl2-15" value="Suggested scope for a proof of concept" style="text;html=1;strokeColor=none;fillColor=none;align=left;verticalAlign=middle;whiteSpace=wrap;rounded=0;shadow=0;fontSize=18;" parent="1" vertex="1">
          <mxGeometry x="200" y="627" width="480" height="30" as="geometry" />
        </mxCell>
      </root>
    </mxGraphModel>
  </diagram>
  <diagram name="H-L Reqs." id="h9jbHCem-ycJ2uZCTOwV">
    <mxGraphModel dx="975" dy="649" grid="1" gridSize="10" guides="1" tooltips="1" connect="1" arrows="1" fold="1" page="1" pageScale="1" pageWidth="850" pageHeight="1100" math="0" shadow="0">
      <root>
        <mxCell id="9m_CjEebkvtOnrXl-hu_-0" />
        <mxCell id="9m_CjEebkvtOnrXl-hu_-1" parent="9m_CjEebkvtOnrXl-hu_-0" />
        <mxCell id="AXn1gOnWAieejqgXZwlD-0" value="&lt;h1&gt;High-Level Requirements&lt;/h1&gt;&lt;p&gt;1. &lt;b&gt;Enable third party business analysts to generate and validate reports on AnyCompany data without risk of leakage of PII and customer sensitive data&lt;/b&gt;&lt;/p&gt;&lt;p&gt;1.1 Third party BAs should not have access to PII and customer sensitive data: Required PII/CS datasets need to be processed, scrubbed, to remove PII/CS data from text fields, many of which are free form text such as emails and call logs.&lt;/p&gt;&lt;p&gt;1.2. Third party BAs should not have access to analytics datastores that have PII or customer sensitive data&lt;/p&gt;&lt;p&gt;1.3 Access to the datasets for third party analysis needs to be controlled and monitored&lt;/p&gt;&lt;p&gt;1.4 The data scrubbing process requires AI/ML. The medium-term solution needs to support R&amp;amp;D of AI/ML solutions by AnyCompany.&lt;/p&gt;&lt;p&gt;2. &lt;b&gt;Reduce on-going risk of leakage of PII and customer sensitive data&lt;/b&gt;&lt;/p&gt;&lt;p&gt;2.1 Have in-house team to use scrubbed data, with an option to revert scrubbed data to the original text for debugging and specific analytics&lt;/p&gt;" style="text;html=1;strokeColor=none;fillColor=none;spacing=5;spacingTop=-20;whiteSpace=wrap;overflow=hidden;rounded=0;shadow=0;labelBorderColor=none;fontSize=18;fontColor=#000000;" vertex="1" parent="9m_CjEebkvtOnrXl-hu_-1">
          <mxGeometry x="80" y="120" width="680" height="530" as="geometry" />
        </mxCell>
      </root>
    </mxGraphModel>
  </diagram>
  <diagram id="25lp0CtglmJZi7T5T5F2" name="Current State">
    <mxGraphModel dx="975" dy="649" grid="1" gridSize="10" guides="1" tooltips="1" connect="1" arrows="1" fold="1" page="1" pageScale="1" pageWidth="850" pageHeight="1100" math="0" shadow="0">
      <root>
        <mxCell id="0" />
        <mxCell id="1" parent="0" />
        <mxCell id="0dhcSubbFJwOVWDAAFgo-3" value="" style="ellipse;whiteSpace=wrap;html=1;aspect=fixed;shadow=0;labelBorderColor=none;strokeColor=#666666;fontSize=18;fontColor=#333333;fillColor=#f5f5f5;" vertex="1" parent="1">
          <mxGeometry x="970" y="431" width="126" height="126" as="geometry" />
        </mxCell>
        <mxCell id="h1IbnTh46kwvZ-l_5gWV-3" value="Operational Systems" style="swimlane;whiteSpace=wrap;html=1;shadow=0;strokeColor=default;fontSize=18;startSize=40;" parent="1" vertex="1">
          <mxGeometry x="59" y="80" width="180" height="540" as="geometry" />
        </mxCell>
        <mxCell id="gpUl1PO_aZrQJFSE_oQn-3" value="Interactive&lt;br&gt;Call Center" style="rounded=1;whiteSpace=wrap;html=1;shadow=0;strokeColor=default;fontSize=18;" vertex="1" parent="h1IbnTh46kwvZ-l_5gWV-3">
          <mxGeometry x="21" y="80" width="140" height="60" as="geometry" />
        </mxCell>
        <mxCell id="gpUl1PO_aZrQJFSE_oQn-4" value="Email &lt;br&gt;Support" style="rounded=1;whiteSpace=wrap;html=1;shadow=0;strokeColor=default;fontSize=18;" vertex="1" parent="h1IbnTh46kwvZ-l_5gWV-3">
          <mxGeometry x="21" y="180" width="140" height="60" as="geometry" />
        </mxCell>
        <mxCell id="gpUl1PO_aZrQJFSE_oQn-5" value="Text &amp;amp; Chatbot&amp;nbsp;&lt;br&gt;Support" style="rounded=1;whiteSpace=wrap;html=1;shadow=0;strokeColor=default;fontSize=18;" vertex="1" parent="h1IbnTh46kwvZ-l_5gWV-3">
          <mxGeometry x="21" y="280" width="140" height="60" as="geometry" />
        </mxCell>
        <mxCell id="gpUl1PO_aZrQJFSE_oQn-6" value="..." style="rounded=1;whiteSpace=wrap;html=1;shadow=0;strokeColor=default;fontSize=18;" vertex="1" parent="h1IbnTh46kwvZ-l_5gWV-3">
          <mxGeometry x="23" y="426" width="140" height="60" as="geometry" />
        </mxCell>
        <mxCell id="h1IbnTh46kwvZ-l_5gWV-4" value="Analytics Data Stores" style="swimlane;whiteSpace=wrap;html=1;shadow=0;strokeColor=default;fontSize=18;startSize=40;" parent="1" vertex="1">
          <mxGeometry x="520" y="80" width="180" height="540" as="geometry" />
        </mxCell>
        <mxCell id="gpUl1PO_aZrQJFSE_oQn-12" value="" style="shape=cylinder3;whiteSpace=wrap;html=1;boundedLbl=1;backgroundOutline=1;size=15;shadow=0;strokeColor=default;fontSize=18;fontColor=#9933FF;" vertex="1" parent="h1IbnTh46kwvZ-l_5gWV-4">
          <mxGeometry x="20" y="110" width="140" height="140" as="geometry" />
        </mxCell>
        <mxCell id="zf8lR28jDNdzLFkF-36o-1" value="&lt;font color=&quot;#9933ff&quot;&gt;PII/Sensitive&lt;br&gt;&lt;/font&gt;&amp;amp; Ops Data" style="text;html=1;strokeColor=none;fillColor=none;align=center;verticalAlign=middle;whiteSpace=wrap;rounded=0;shadow=0;labelBorderColor=none;fontSize=18;fontColor=#000000;" vertex="1" parent="h1IbnTh46kwvZ-l_5gWV-4">
          <mxGeometry x="20" y="170" width="140" height="30" as="geometry" />
        </mxCell>
        <mxCell id="h1IbnTh46kwvZ-l_5gWV-5" value="In-House &lt;br&gt;BA" style="shape=umlActor;verticalLabelPosition=bottom;verticalAlign=top;html=1;outlineConnect=0;shadow=0;strokeColor=default;fontSize=18;" parent="1" vertex="1">
          <mxGeometry x="1020" y="210" width="30" height="60" as="geometry" />
        </mxCell>
        <mxCell id="h1IbnTh46kwvZ-l_5gWV-9" value="3rd Party&lt;br&gt;BA" style="shape=umlActor;verticalLabelPosition=bottom;verticalAlign=top;html=1;outlineConnect=0;shadow=0;strokeColor=default;fontSize=18;" parent="1" vertex="1">
          <mxGeometry x="1020" y="447" width="30" height="50" as="geometry" />
        </mxCell>
        <mxCell id="gpUl1PO_aZrQJFSE_oQn-7" value="Data Sets" style="swimlane;whiteSpace=wrap;html=1;shadow=0;strokeColor=default;fontSize=18;startSize=40;" vertex="1" parent="1">
          <mxGeometry x="300" y="80" width="180" height="540" as="geometry" />
        </mxCell>
        <mxCell id="gpUl1PO_aZrQJFSE_oQn-8" value="&lt;font color=&quot;#9933ff&quot;&gt;Call Logs&lt;/font&gt; &amp;amp; Operations Data" style="rounded=1;whiteSpace=wrap;html=1;shadow=0;strokeColor=default;fontSize=18;" vertex="1" parent="gpUl1PO_aZrQJFSE_oQn-7">
          <mxGeometry x="18" y="80" width="140" height="60" as="geometry" />
        </mxCell>
        <mxCell id="gpUl1PO_aZrQJFSE_oQn-9" value="&lt;font color=&quot;#9933ff&quot;&gt;Emails&lt;/font&gt; &amp;amp; Operations Data" style="rounded=1;whiteSpace=wrap;html=1;shadow=0;strokeColor=default;fontSize=18;" vertex="1" parent="gpUl1PO_aZrQJFSE_oQn-7">
          <mxGeometry x="18" y="180" width="140" height="60" as="geometry" />
        </mxCell>
        <mxCell id="gpUl1PO_aZrQJFSE_oQn-10" value="&lt;font color=&quot;#9933ff&quot;&gt;Texts&lt;/font&gt; &amp;amp;&lt;br&gt;Operations Data" style="rounded=1;whiteSpace=wrap;html=1;shadow=0;strokeColor=default;fontSize=18;" vertex="1" parent="gpUl1PO_aZrQJFSE_oQn-7">
          <mxGeometry x="18" y="280" width="140" height="60" as="geometry" />
        </mxCell>
        <mxCell id="gpUl1PO_aZrQJFSE_oQn-11" value="&lt;font color=&quot;#9933ff&quot;&gt;PII/Sensitive&lt;/font&gt; &amp;amp;&lt;br&gt;Operations Data" style="rounded=1;whiteSpace=wrap;html=1;shadow=0;strokeColor=default;fontSize=18;" vertex="1" parent="gpUl1PO_aZrQJFSE_oQn-7">
          <mxGeometry x="20" y="420" width="140" height="60" as="geometry" />
        </mxCell>
        <mxCell id="gpUl1PO_aZrQJFSE_oQn-16" value="Analytics &lt;br&gt;Processes" style="swimlane;whiteSpace=wrap;html=1;shadow=0;strokeColor=default;fontSize=18;startSize=40;" vertex="1" parent="1">
          <mxGeometry x="760" y="80" width="180" height="540" as="geometry" />
        </mxCell>
        <mxCell id="gpUl1PO_aZrQJFSE_oQn-19" value="Business Analytics" style="rounded=1;whiteSpace=wrap;html=1;shadow=0;labelBorderColor=none;strokeColor=default;fontSize=18;fontColor=#000000;" vertex="1" parent="gpUl1PO_aZrQJFSE_oQn-16">
          <mxGeometry x="30" y="150" width="120" height="60" as="geometry" />
        </mxCell>
        <mxCell id="gpUl1PO_aZrQJFSE_oQn-26" value="Analytics&lt;br&gt;Warehouse" style="text;html=1;strokeColor=none;fillColor=none;align=center;verticalAlign=middle;whiteSpace=wrap;rounded=0;shadow=0;labelBorderColor=none;fontSize=18;fontColor=#000000;" vertex="1" parent="1">
          <mxGeometry x="580" y="340" width="60" height="30" as="geometry" />
        </mxCell>
      </root>
    </mxGraphModel>
  </diagram>
  <diagram name="Future State" id="HBv1KzzV3jWL5Cb1V32m">
    <mxGraphModel dx="975" dy="649" grid="1" gridSize="10" guides="1" tooltips="1" connect="1" arrows="1" fold="1" page="1" pageScale="1" pageWidth="850" pageHeight="1100" math="0" shadow="0">
      <root>
        <mxCell id="hyJC9mIuy3ANaXY3VcQb-0" />
        <mxCell id="hyJC9mIuy3ANaXY3VcQb-1" parent="hyJC9mIuy3ANaXY3VcQb-0" />
        <mxCell id="hyJC9mIuy3ANaXY3VcQb-2" value="Operational Systems" style="swimlane;whiteSpace=wrap;html=1;shadow=0;strokeColor=default;fontSize=18;startSize=40;" vertex="1" parent="hyJC9mIuy3ANaXY3VcQb-1">
          <mxGeometry x="59" y="80" width="180" height="540" as="geometry" />
        </mxCell>
        <mxCell id="hyJC9mIuy3ANaXY3VcQb-3" value="Interactive&lt;br&gt;Call Center" style="rounded=1;whiteSpace=wrap;html=1;shadow=0;strokeColor=default;fontSize=18;" vertex="1" parent="hyJC9mIuy3ANaXY3VcQb-2">
          <mxGeometry x="21" y="80" width="140" height="60" as="geometry" />
        </mxCell>
        <mxCell id="hyJC9mIuy3ANaXY3VcQb-4" value="Email &lt;br&gt;Support" style="rounded=1;whiteSpace=wrap;html=1;shadow=0;strokeColor=default;fontSize=18;" vertex="1" parent="hyJC9mIuy3ANaXY3VcQb-2">
          <mxGeometry x="21" y="180" width="140" height="60" as="geometry" />
        </mxCell>
        <mxCell id="hyJC9mIuy3ANaXY3VcQb-5" value="Text &amp;amp; Chatbot&amp;nbsp;&lt;br&gt;Support" style="rounded=1;whiteSpace=wrap;html=1;shadow=0;strokeColor=default;fontSize=18;" vertex="1" parent="hyJC9mIuy3ANaXY3VcQb-2">
          <mxGeometry x="21" y="280" width="140" height="60" as="geometry" />
        </mxCell>
        <mxCell id="hyJC9mIuy3ANaXY3VcQb-6" value="..." style="rounded=1;whiteSpace=wrap;html=1;shadow=0;strokeColor=default;fontSize=18;" vertex="1" parent="hyJC9mIuy3ANaXY3VcQb-2">
          <mxGeometry x="23" y="426" width="140" height="60" as="geometry" />
        </mxCell>
        <mxCell id="hyJC9mIuy3ANaXY3VcQb-7" value="Analytics Data Stores &amp;amp; Systems" style="swimlane;whiteSpace=wrap;html=1;shadow=0;strokeColor=default;fontSize=18;startSize=40;" vertex="1" parent="hyJC9mIuy3ANaXY3VcQb-1">
          <mxGeometry x="520" y="80" width="180" height="540" as="geometry" />
        </mxCell>
        <mxCell id="0Jkv3jb7glhRKEIvXEkH-0" value="" style="shape=cylinder3;whiteSpace=wrap;html=1;boundedLbl=1;backgroundOutline=1;size=15;shadow=0;fontSize=18;fillColor=#d5e8d4;strokeColor=#82b366;" vertex="1" parent="hyJC9mIuy3ANaXY3VcQb-7">
          <mxGeometry x="20" y="70" width="140" height="140" as="geometry" />
        </mxCell>
        <mxCell id="0Jkv3jb7glhRKEIvXEkH-1" value="Analytics&lt;br&gt;Data Store" style="text;html=1;strokeColor=none;fillColor=none;align=center;verticalAlign=middle;whiteSpace=wrap;rounded=0;shadow=0;labelBorderColor=none;fontSize=18;fontColor=#000000;" vertex="1" parent="hyJC9mIuy3ANaXY3VcQb-7">
          <mxGeometry x="20" y="220" width="130" height="30" as="geometry" />
        </mxCell>
        <mxCell id="O4PE7a0Fi9K-1KhrLcxD-1" value="AI/ML&lt;br&gt;Tools &amp;amp; Infra." style="rounded=1;whiteSpace=wrap;html=1;shadow=0;strokeColor=default;fontSize=18;" vertex="1" parent="hyJC9mIuy3ANaXY3VcQb-7">
          <mxGeometry x="20" y="280" width="140" height="60" as="geometry" />
        </mxCell>
        <mxCell id="O4PE7a0Fi9K-1KhrLcxD-2" value="Data Monetization Tools" style="rounded=1;whiteSpace=wrap;html=1;shadow=0;strokeColor=default;fontSize=18;" vertex="1" parent="hyJC9mIuy3ANaXY3VcQb-7">
          <mxGeometry x="20" y="420" width="140" height="60" as="geometry" />
        </mxCell>
        <mxCell id="gAzMdX1-zWV9BWONYZ82-0" value="&lt;font color=&quot;#009900&quot;&gt;Scrubbed&lt;/font&gt;&lt;br&gt;&amp;amp; Ops Data" style="text;html=1;strokeColor=none;fillColor=none;align=center;verticalAlign=middle;whiteSpace=wrap;rounded=0;shadow=0;labelBorderColor=none;fontSize=18;fontColor=#000000;" vertex="1" parent="hyJC9mIuy3ANaXY3VcQb-7">
          <mxGeometry x="20" y="125" width="140" height="30" as="geometry" />
        </mxCell>
        <mxCell id="hyJC9mIuy3ANaXY3VcQb-10" value="In-House &lt;br&gt;BA / DS" style="shape=umlActor;verticalLabelPosition=bottom;verticalAlign=top;html=1;outlineConnect=0;shadow=0;strokeColor=default;fontSize=18;" vertex="1" parent="hyJC9mIuy3ANaXY3VcQb-1">
          <mxGeometry x="1020" y="210" width="30" height="60" as="geometry" />
        </mxCell>
        <mxCell id="hyJC9mIuy3ANaXY3VcQb-11" value="3rd Party&lt;br&gt;BA / DS" style="shape=umlActor;verticalLabelPosition=bottom;verticalAlign=top;html=1;outlineConnect=0;shadow=0;strokeColor=default;fontSize=18;" vertex="1" parent="hyJC9mIuy3ANaXY3VcQb-1">
          <mxGeometry x="1020" y="447" width="30" height="50" as="geometry" />
        </mxCell>
        <mxCell id="hyJC9mIuy3ANaXY3VcQb-12" value="Data Sets" style="swimlane;whiteSpace=wrap;html=1;shadow=0;strokeColor=default;fontSize=18;startSize=40;" vertex="1" parent="hyJC9mIuy3ANaXY3VcQb-1">
          <mxGeometry x="300" y="80" width="180" height="540" as="geometry" />
        </mxCell>
        <mxCell id="hyJC9mIuy3ANaXY3VcQb-13" value="&lt;font color=&quot;#9933ff&quot;&gt;Call Logs&lt;/font&gt; &amp;amp; Operations Data" style="rounded=1;whiteSpace=wrap;html=1;shadow=0;strokeColor=default;fontSize=18;" vertex="1" parent="hyJC9mIuy3ANaXY3VcQb-12">
          <mxGeometry x="18" y="80" width="140" height="60" as="geometry" />
        </mxCell>
        <mxCell id="hyJC9mIuy3ANaXY3VcQb-14" value="&lt;font color=&quot;#9933ff&quot;&gt;Emails&lt;/font&gt; &amp;amp; Operations Data" style="rounded=1;whiteSpace=wrap;html=1;shadow=0;strokeColor=default;fontSize=18;" vertex="1" parent="hyJC9mIuy3ANaXY3VcQb-12">
          <mxGeometry x="18" y="180" width="140" height="60" as="geometry" />
        </mxCell>
        <mxCell id="hyJC9mIuy3ANaXY3VcQb-15" value="&lt;font color=&quot;#9933ff&quot;&gt;Texts&lt;/font&gt; &amp;amp;&lt;br&gt;Operations Data" style="rounded=1;whiteSpace=wrap;html=1;shadow=0;strokeColor=default;fontSize=18;" vertex="1" parent="hyJC9mIuy3ANaXY3VcQb-12">
          <mxGeometry x="18" y="280" width="140" height="60" as="geometry" />
        </mxCell>
        <mxCell id="hyJC9mIuy3ANaXY3VcQb-16" value="&lt;font color=&quot;#9933ff&quot;&gt;PII/Sensitive&lt;/font&gt; &amp;amp;&lt;br&gt;Operations Data" style="rounded=1;whiteSpace=wrap;html=1;shadow=0;strokeColor=default;fontSize=18;" vertex="1" parent="hyJC9mIuy3ANaXY3VcQb-12">
          <mxGeometry x="20" y="420" width="140" height="60" as="geometry" />
        </mxCell>
        <mxCell id="hyJC9mIuy3ANaXY3VcQb-17" value="Analytics &lt;br&gt;Processes" style="swimlane;whiteSpace=wrap;html=1;shadow=0;strokeColor=default;fontSize=18;startSize=40;" vertex="1" parent="hyJC9mIuy3ANaXY3VcQb-1">
          <mxGeometry x="760" y="80" width="180" height="540" as="geometry" />
        </mxCell>
        <mxCell id="hyJC9mIuy3ANaXY3VcQb-19" value="Business Analytics" style="rounded=1;whiteSpace=wrap;html=1;shadow=0;labelBorderColor=none;strokeColor=default;fontSize=18;fontColor=#000000;" vertex="1" parent="hyJC9mIuy3ANaXY3VcQb-17">
          <mxGeometry x="30" y="120" width="120" height="60" as="geometry" />
        </mxCell>
        <mxCell id="hyJC9mIuy3ANaXY3VcQb-21" value="AI/ML" style="rounded=1;whiteSpace=wrap;html=1;shadow=0;labelBorderColor=none;strokeColor=default;fontSize=18;fontColor=#000000;" vertex="1" parent="hyJC9mIuy3ANaXY3VcQb-17">
          <mxGeometry x="30" y="280" width="120" height="60" as="geometry" />
        </mxCell>
        <mxCell id="O4PE7a0Fi9K-1KhrLcxD-0" value="Monetization" style="rounded=1;whiteSpace=wrap;html=1;shadow=0;labelBorderColor=none;strokeColor=default;fontSize=18;fontColor=#000000;" vertex="1" parent="hyJC9mIuy3ANaXY3VcQb-17">
          <mxGeometry x="30" y="420" width="120" height="60" as="geometry" />
        </mxCell>
      </root>
    </mxGraphModel>
  </diagram>
  <diagram name="Data Scrubbing" id="U5oCiPYMo4C-_qP5Ro2j">
    <mxGraphModel dx="975" dy="649" grid="1" gridSize="10" guides="1" tooltips="1" connect="1" arrows="1" fold="1" page="1" pageScale="1" pageWidth="850" pageHeight="1100" math="0" shadow="0">
      <root>
        <mxCell id="vECQrhH6S6L_jKQsrYaC-0" />
        <mxCell id="vECQrhH6S6L_jKQsrYaC-1" parent="vECQrhH6S6L_jKQsrYaC-0" />
        <mxCell id="vECQrhH6S6L_jKQsrYaC-15" value="Data Sets" style="swimlane;whiteSpace=wrap;html=1;shadow=0;strokeColor=default;fontSize=18;startSize=40;" vertex="1" parent="vECQrhH6S6L_jKQsrYaC-1">
          <mxGeometry x="80" y="80" width="180" height="380" as="geometry" />
        </mxCell>
        <mxCell id="vECQrhH6S6L_jKQsrYaC-16" value="&lt;font color=&quot;#9933ff&quot;&gt;Call Logs&lt;/font&gt; &amp;amp; Operations Data" style="rounded=1;whiteSpace=wrap;html=1;shadow=0;strokeColor=default;fontSize=18;" vertex="1" parent="vECQrhH6S6L_jKQsrYaC-15">
          <mxGeometry x="18" y="60" width="140" height="60" as="geometry" />
        </mxCell>
        <mxCell id="vECQrhH6S6L_jKQsrYaC-17" value="&lt;font color=&quot;#9933ff&quot;&gt;Emails&lt;/font&gt; &amp;amp; Operations Data" style="rounded=1;whiteSpace=wrap;html=1;shadow=0;strokeColor=default;fontSize=18;" vertex="1" parent="vECQrhH6S6L_jKQsrYaC-15">
          <mxGeometry x="18" y="140" width="140" height="60" as="geometry" />
        </mxCell>
        <mxCell id="vECQrhH6S6L_jKQsrYaC-18" value="&lt;font color=&quot;#9933ff&quot;&gt;&lt;span style=&quot;caret-color: rgb(153, 51, 255);&quot;&gt;...&lt;/span&gt;&lt;/font&gt;" style="rounded=1;whiteSpace=wrap;html=1;shadow=0;strokeColor=default;fontSize=18;" vertex="1" parent="vECQrhH6S6L_jKQsrYaC-15">
          <mxGeometry x="18" y="220" width="140" height="60" as="geometry" />
        </mxCell>
        <mxCell id="vECQrhH6S6L_jKQsrYaC-19" value="&lt;font color=&quot;#9933ff&quot;&gt;PII/Sensitive&lt;/font&gt; &amp;amp;&lt;br&gt;Operations Data" style="rounded=1;whiteSpace=wrap;html=1;shadow=0;strokeColor=default;fontSize=18;" vertex="1" parent="vECQrhH6S6L_jKQsrYaC-15">
          <mxGeometry x="20" y="300" width="140" height="60" as="geometry" />
        </mxCell>
        <mxCell id="CYsU5AHVktb8ha5JLULZ-0" value="&lt;font color=&quot;#000000&quot;&gt;Scrub Data&lt;/font&gt;" style="rounded=1;whiteSpace=wrap;html=1;shadow=0;labelBorderColor=none;strokeColor=default;fontSize=18;fontColor=#9933FF;" vertex="1" parent="vECQrhH6S6L_jKQsrYaC-1">
          <mxGeometry x="440" y="160" width="400" height="300" as="geometry" />
        </mxCell>
        <mxCell id="CYsU5AHVktb8ha5JLULZ-1" value="&lt;font color=&quot;#000000&quot;&gt;Revert Data&lt;/font&gt;" style="rounded=1;whiteSpace=wrap;html=1;shadow=0;labelBorderColor=none;strokeColor=default;fontSize=18;fontColor=#9933FF;" vertex="1" parent="vECQrhH6S6L_jKQsrYaC-1">
          <mxGeometry x="440" y="490" width="400" height="140" as="geometry" />
        </mxCell>
        <mxCell id="b8GQMUXerxtxGoJxNrRM-4" value="&lt;font color=&quot;#000000&quot;&gt;In-house&lt;br&gt;BA/DS&lt;/font&gt;" style="shape=umlActor;verticalLabelPosition=bottom;verticalAlign=top;html=1;outlineConnect=0;shadow=0;labelBorderColor=none;strokeColor=default;fontSize=18;fontColor=#9933FF;" vertex="1" parent="vECQrhH6S6L_jKQsrYaC-1">
          <mxGeometry x="140" y="530" width="30" height="60" as="geometry" />
        </mxCell>
        <mxCell id="vECQrhH6S6L_jKQsrYaC-8" value="" style="shape=cylinder3;whiteSpace=wrap;html=1;boundedLbl=1;backgroundOutline=1;size=15;shadow=0;strokeColor=#82b366;fontSize=18;fillColor=#d5e8d4;" vertex="1" parent="vECQrhH6S6L_jKQsrYaC-1">
          <mxGeometry x="910" y="230" width="140" height="140" as="geometry" />
        </mxCell>
        <mxCell id="vECQrhH6S6L_jKQsrYaC-9" value="Analytics&lt;br&gt;Data Store" style="text;html=1;strokeColor=none;fillColor=none;align=center;verticalAlign=middle;whiteSpace=wrap;rounded=0;shadow=0;labelBorderColor=none;fontSize=18;fontColor=#000000;" vertex="1" parent="vECQrhH6S6L_jKQsrYaC-1">
          <mxGeometry x="920" y="380" width="120" height="30" as="geometry" />
        </mxCell>
        <mxCell id="vECQrhH6S6L_jKQsrYaC-12" value="&lt;font color=&quot;#009900&quot;&gt;Scrubbed&lt;/font&gt;&lt;br&gt;&amp;amp; Ops Data" style="text;html=1;strokeColor=none;fillColor=none;align=center;verticalAlign=middle;whiteSpace=wrap;rounded=0;shadow=0;labelBorderColor=none;fontSize=18;fontColor=#000000;" vertex="1" parent="vECQrhH6S6L_jKQsrYaC-1">
          <mxGeometry x="910" y="285" width="140" height="30" as="geometry" />
        </mxCell>
        <mxCell id="Kq4Q_HxL_EDb6amXsnjC-2" value="ETL" style="rounded=1;whiteSpace=wrap;html=1;shadow=0;labelBorderColor=none;strokeColor=default;fontSize=18;fontColor=#000000;" vertex="1" parent="vECQrhH6S6L_jKQsrYaC-1">
          <mxGeometry x="300" y="80" width="80" height="380" as="geometry" />
        </mxCell>
        <mxCell id="Ud3gxGJe9PFryMNVVnPc-3" value="" style="endArrow=classic;html=1;rounded=0;fontSize=18;fontColor=#000000;exitX=1.025;exitY=0.108;exitDx=0;exitDy=0;exitPerimeter=0;entryX=0.5;entryY=0;entryDx=0;entryDy=0;entryPerimeter=0;" edge="1" parent="vECQrhH6S6L_jKQsrYaC-1" source="Kq4Q_HxL_EDb6amXsnjC-2" target="vECQrhH6S6L_jKQsrYaC-8">
          <mxGeometry width="50" height="50" relative="1" as="geometry">
            <mxPoint x="540" y="370" as="sourcePoint" />
            <mxPoint x="590" y="320" as="targetPoint" />
            <Array as="points">
              <mxPoint x="980" y="120" />
            </Array>
          </mxGeometry>
        </mxCell>
        <mxCell id="Ud3gxGJe9PFryMNVVnPc-4" value="Operations Data" style="text;html=1;strokeColor=none;fillColor=none;align=center;verticalAlign=middle;whiteSpace=wrap;rounded=0;shadow=0;labelBorderColor=none;fontSize=18;fontColor=#000000;" vertex="1" parent="vECQrhH6S6L_jKQsrYaC-1">
          <mxGeometry x="545" y="90" width="190" height="30" as="geometry" />
        </mxCell>
        <mxCell id="Ud3gxGJe9PFryMNVVnPc-5" value="" style="endArrow=classic;html=1;rounded=0;fontSize=18;fontColor=#000000;entryX=0;entryY=0.5;entryDx=0;entryDy=0;" edge="1" parent="vECQrhH6S6L_jKQsrYaC-1" target="CYsU5AHVktb8ha5JLULZ-0">
          <mxGeometry width="50" height="50" relative="1" as="geometry">
            <mxPoint x="380" y="310" as="sourcePoint" />
            <mxPoint x="610" y="320" as="targetPoint" />
          </mxGeometry>
        </mxCell>
        <mxCell id="Ud3gxGJe9PFryMNVVnPc-6" value="Debug,&lt;br&gt;Reports,&lt;br&gt;..." style="rounded=1;whiteSpace=wrap;html=1;shadow=0;labelBorderColor=none;strokeColor=default;fontSize=18;fontColor=#000000;" vertex="1" parent="vECQrhH6S6L_jKQsrYaC-1">
          <mxGeometry x="300" y="490" width="80" height="150" as="geometry" />
        </mxCell>
        <mxCell id="Ud3gxGJe9PFryMNVVnPc-7" value="&lt;font color=&quot;#9933ff&quot;&gt;PII/Sensitive&lt;/font&gt;" style="text;html=1;strokeColor=none;fillColor=none;align=center;verticalAlign=middle;whiteSpace=wrap;rounded=0;shadow=0;labelBorderColor=none;fontSize=18;fontColor=#000000;" vertex="1" parent="vECQrhH6S6L_jKQsrYaC-1">
          <mxGeometry x="350" y="310" width="120" height="30" as="geometry" />
        </mxCell>
        <mxCell id="Ud3gxGJe9PFryMNVVnPc-8" value="" style="endArrow=classic;html=1;rounded=0;fontSize=18;fontColor=#000000;entryX=0;entryY=0.5;entryDx=0;entryDy=0;" edge="1" parent="vECQrhH6S6L_jKQsrYaC-1" target="vECQrhH6S6L_jKQsrYaC-12">
          <mxGeometry width="50" height="50" relative="1" as="geometry">
            <mxPoint x="840" y="300" as="sourcePoint" />
            <mxPoint x="900" y="300" as="targetPoint" />
          </mxGeometry>
        </mxCell>
        <mxCell id="Ud3gxGJe9PFryMNVVnPc-9" value="&lt;font color=&quot;#009900&quot;&gt;Scrubbed&lt;/font&gt;" style="text;html=1;strokeColor=none;fillColor=none;align=center;verticalAlign=middle;whiteSpace=wrap;rounded=0;shadow=0;labelBorderColor=none;fontSize=18;fontColor=#000000;" vertex="1" parent="vECQrhH6S6L_jKQsrYaC-1">
          <mxGeometry x="820" y="300" width="120" height="30" as="geometry" />
        </mxCell>
        <mxCell id="5plJ2uATQPgv5vO-h2zq-0" value="" style="endArrow=classic;html=1;rounded=0;fontSize=18;fontColor=#000000;entryX=0;entryY=0.5;entryDx=0;entryDy=0;" edge="1" parent="vECQrhH6S6L_jKQsrYaC-1">
          <mxGeometry width="50" height="50" relative="1" as="geometry">
            <mxPoint x="380" y="540" as="sourcePoint" />
            <mxPoint x="450" y="540" as="targetPoint" />
          </mxGeometry>
        </mxCell>
        <mxCell id="5plJ2uATQPgv5vO-h2zq-1" value="&lt;font color=&quot;#009900&quot;&gt;Scrubbed&lt;/font&gt;" style="text;html=1;strokeColor=none;fillColor=none;align=center;verticalAlign=middle;whiteSpace=wrap;rounded=0;shadow=0;labelBorderColor=none;fontSize=18;fontColor=#000000;" vertex="1" parent="vECQrhH6S6L_jKQsrYaC-1">
          <mxGeometry x="350" y="510" width="120" height="30" as="geometry" />
        </mxCell>
        <mxCell id="5plJ2uATQPgv5vO-h2zq-2" value="&lt;font color=&quot;#9933ff&quot;&gt;PII/Sensitive&lt;/font&gt;" style="text;html=1;strokeColor=none;fillColor=none;align=center;verticalAlign=middle;whiteSpace=wrap;rounded=0;shadow=0;labelBorderColor=none;fontSize=18;fontColor=#000000;" vertex="1" parent="vECQrhH6S6L_jKQsrYaC-1">
          <mxGeometry x="350" y="600" width="120" height="30" as="geometry" />
        </mxCell>
        <mxCell id="5plJ2uATQPgv5vO-h2zq-3" value="" style="endArrow=classic;html=1;rounded=0;fontSize=18;fontColor=#000000;entryX=0.25;entryY=0;entryDx=0;entryDy=0;exitX=0.75;exitY=0;exitDx=0;exitDy=0;" edge="1" parent="vECQrhH6S6L_jKQsrYaC-1" source="5plJ2uATQPgv5vO-h2zq-2" target="5plJ2uATQPgv5vO-h2zq-2">
          <mxGeometry width="50" height="50" relative="1" as="geometry">
            <mxPoint x="560" y="370" as="sourcePoint" />
            <mxPoint x="610" y="320" as="targetPoint" />
          </mxGeometry>
        </mxCell>
      </root>
    </mxGraphModel>
  </diagram>
  <diagram id="fh6pX0H431qZWD7UBe4o" name="Functional Reqs.">
    <mxGraphModel dx="975" dy="649" grid="1" gridSize="10" guides="1" tooltips="1" connect="1" arrows="1" fold="1" page="1" pageScale="1" pageWidth="850" pageHeight="1100" math="0" shadow="0">
      <root>
        <mxCell id="0" />
        <mxCell id="1" parent="0" />
        <mxCell id="u4hqZSF4Cvs4WBXSq2FB-4" style="edgeStyle=orthogonalEdgeStyle;rounded=0;orthogonalLoop=1;jettySize=auto;html=1;exitX=1;exitY=0.5;exitDx=0;exitDy=0;fontSize=18;fontColor=#000000;" edge="1" parent="1" source="biFjLUMGbpg6rF05HD9G-1" target="u4hqZSF4Cvs4WBXSq2FB-2">
          <mxGeometry relative="1" as="geometry" />
        </mxCell>
        <mxCell id="biFjLUMGbpg6rF05HD9G-1" value="Scrubber" style="ellipse;whiteSpace=wrap;html=1;fillColor=#fff2cc;strokeColor=#d6b656;" parent="1" vertex="1">
          <mxGeometry x="265" y="300" width="160" height="80" as="geometry" />
        </mxCell>
        <mxCell id="biFjLUMGbpg6rF05HD9G-2" value="Performance&lt;br&gt;Efficiency" style="ellipse;whiteSpace=wrap;html=1;" parent="1" vertex="1">
          <mxGeometry x="410" y="120" width="120" height="80" as="geometry" />
        </mxCell>
        <mxCell id="biFjLUMGbpg6rF05HD9G-4" value="Cost&lt;br&gt;Optimization" style="ellipse;whiteSpace=wrap;html=1;" parent="1" vertex="1">
          <mxGeometry x="90" y="130" width="120" height="80" as="geometry" />
        </mxCell>
        <mxCell id="biFjLUMGbpg6rF05HD9G-5" value="" style="endArrow=none;html=1;rounded=0;entryX=0.5;entryY=1;entryDx=0;entryDy=0;exitX=0;exitY=0;exitDx=0;exitDy=0;dashed=1;" parent="1" source="biFjLUMGbpg6rF05HD9G-1" target="biFjLUMGbpg6rF05HD9G-4" edge="1">
          <mxGeometry width="50" height="50" relative="1" as="geometry">
            <mxPoint x="302.57359312880703" y="171.71572875253798" as="sourcePoint" />
            <mxPoint x="171" y="260" as="targetPoint" />
          </mxGeometry>
        </mxCell>
        <mxCell id="DzykFqKgfEABbtOcEbP5-6" value="Functionality" style="ellipse;whiteSpace=wrap;html=1;" parent="1" vertex="1">
          <mxGeometry x="285" y="480" width="120" height="80" as="geometry" />
        </mxCell>
        <mxCell id="DzykFqKgfEABbtOcEbP5-7" value="Operational&lt;br&gt;Excellence" style="ellipse;whiteSpace=wrap;html=1;" parent="1" vertex="1">
          <mxGeometry x="80" y="480" width="120" height="80" as="geometry" />
        </mxCell>
        <mxCell id="DzykFqKgfEABbtOcEbP5-9" value="" style="endArrow=none;html=1;rounded=0;entryX=0.5;entryY=0;entryDx=0;entryDy=0;exitX=0.5;exitY=1;exitDx=0;exitDy=0;dashed=1;" parent="1" source="biFjLUMGbpg6rF05HD9G-1" target="DzykFqKgfEABbtOcEbP5-6" edge="1">
          <mxGeometry width="50" height="50" relative="1" as="geometry">
            <mxPoint x="251" y="350" as="sourcePoint" />
            <mxPoint x="181" y="520" as="targetPoint" />
          </mxGeometry>
        </mxCell>
        <mxCell id="DzykFqKgfEABbtOcEbP5-20" value="Reliability" style="ellipse;whiteSpace=wrap;html=1;" parent="1" vertex="1">
          <mxGeometry x="250" y="120" width="120" height="80" as="geometry" />
        </mxCell>
        <mxCell id="DzykFqKgfEABbtOcEbP5-21" value="Sustainability" style="ellipse;whiteSpace=wrap;html=1;" parent="1" vertex="1">
          <mxGeometry x="570" y="120" width="120" height="80" as="geometry" />
        </mxCell>
        <mxCell id="DzykFqKgfEABbtOcEbP5-22" value="Actor" style="shape=umlActor;verticalLabelPosition=bottom;verticalAlign=top;html=1;outlineConnect=0;" parent="1" vertex="1">
          <mxGeometry x="750" y="250" width="30" height="60" as="geometry" />
        </mxCell>
        <mxCell id="DzykFqKgfEABbtOcEbP5-23" value="Actor" style="shape=umlActor;verticalLabelPosition=bottom;verticalAlign=top;html=1;outlineConnect=0;" parent="1" vertex="1">
          <mxGeometry x="750" y="395" width="30" height="60" as="geometry" />
        </mxCell>
        <mxCell id="u4hqZSF4Cvs4WBXSq2FB-6" style="edgeStyle=orthogonalEdgeStyle;rounded=0;orthogonalLoop=1;jettySize=auto;html=1;entryX=0;entryY=0.5;entryDx=0;entryDy=0;fontSize=18;fontColor=#000000;" edge="1" parent="1" source="u4hqZSF4Cvs4WBXSq2FB-1" target="biFjLUMGbpg6rF05HD9G-1">
          <mxGeometry relative="1" as="geometry" />
        </mxCell>
        <mxCell id="u4hqZSF4Cvs4WBXSq2FB-1" value="" style="shape=cylinder3;whiteSpace=wrap;html=1;boundedLbl=1;backgroundOutline=1;size=15;shadow=0;labelBorderColor=none;strokeColor=default;fontSize=18;fontColor=#000000;" vertex="1" parent="1">
          <mxGeometry x="80" y="285" width="110" height="110" as="geometry" />
        </mxCell>
        <mxCell id="u4hqZSF4Cvs4WBXSq2FB-2" value="" style="shape=cylinder3;whiteSpace=wrap;html=1;boundedLbl=1;backgroundOutline=1;size=15;shadow=0;labelBorderColor=none;strokeColor=#82b366;fontSize=18;fillColor=#d5e8d4;" vertex="1" parent="1">
          <mxGeometry x="500" y="285" width="110" height="110" as="geometry" />
        </mxCell>
        <mxCell id="DKrDCEWhjGS1w0NgW3E9-1" value="Security" style="ellipse;whiteSpace=wrap;html=1;" vertex="1" parent="1">
          <mxGeometry x="480" y="480" width="120" height="80" as="geometry" />
        </mxCell>
      </root>
    </mxGraphModel>
  </diagram>
  <diagram name="Arch. Reqs." id="yX5xpPKX2TFeQkWrZxYQ">
    <mxGraphModel dx="975" dy="649" grid="1" gridSize="10" guides="1" tooltips="1" connect="1" arrows="1" fold="1" page="1" pageScale="1" pageWidth="850" pageHeight="1100" math="0" shadow="0">
      <root>
        <mxCell id="hKUapLD3Pjbxjj1mFjU8-0" />
        <mxCell id="hKUapLD3Pjbxjj1mFjU8-1" parent="hKUapLD3Pjbxjj1mFjU8-0" />
        <mxCell id="hKUapLD3Pjbxjj1mFjU8-2" value="Anonymize" style="ellipse;whiteSpace=wrap;html=1;fillColor=#fff2cc;strokeColor=#d6b656;" parent="hKUapLD3Pjbxjj1mFjU8-1" vertex="1">
          <mxGeometry x="265" y="300" width="160" height="80" as="geometry" />
        </mxCell>
        <mxCell id="hKUapLD3Pjbxjj1mFjU8-3" value="Performance&lt;br&gt;Efficiency" style="ellipse;whiteSpace=wrap;html=1;" parent="hKUapLD3Pjbxjj1mFjU8-1" vertex="1">
          <mxGeometry x="410" y="120" width="120" height="80" as="geometry" />
        </mxCell>
        <mxCell id="hKUapLD3Pjbxjj1mFjU8-4" value="Cost&lt;br&gt;Optimization" style="ellipse;whiteSpace=wrap;html=1;" parent="hKUapLD3Pjbxjj1mFjU8-1" vertex="1">
          <mxGeometry x="90" y="130" width="120" height="80" as="geometry" />
        </mxCell>
        <mxCell id="hKUapLD3Pjbxjj1mFjU8-5" value="" style="endArrow=none;html=1;rounded=0;entryX=0.5;entryY=1;entryDx=0;entryDy=0;exitX=0;exitY=0;exitDx=0;exitDy=0;dashed=1;" parent="hKUapLD3Pjbxjj1mFjU8-1" source="hKUapLD3Pjbxjj1mFjU8-2" target="hKUapLD3Pjbxjj1mFjU8-4" edge="1">
          <mxGeometry width="50" height="50" relative="1" as="geometry">
            <mxPoint x="302.57359312880703" y="171.71572875253798" as="sourcePoint" />
            <mxPoint x="171" y="260" as="targetPoint" />
          </mxGeometry>
        </mxCell>
        <mxCell id="hKUapLD3Pjbxjj1mFjU8-6" value="Analytics" style="ellipse;whiteSpace=wrap;html=1;fillColor=#dae8fc;strokeColor=#6c8ebf;" parent="hKUapLD3Pjbxjj1mFjU8-1" vertex="1">
          <mxGeometry x="500" y="470" width="160" height="80" as="geometry" />
        </mxCell>
        <mxCell id="hKUapLD3Pjbxjj1mFjU8-7" value="(Sanitized)&lt;br&gt;Analytics&lt;br&gt;Data Store" style="ellipse;whiteSpace=wrap;html=1;fillColor=#fff2cc;strokeColor=#d6b656;" parent="hKUapLD3Pjbxjj1mFjU8-1" vertex="1">
          <mxGeometry x="490" y="300" width="160" height="80" as="geometry" />
        </mxCell>
        <mxCell id="hKUapLD3Pjbxjj1mFjU8-8" value="Security" style="ellipse;whiteSpace=wrap;html=1;" parent="hKUapLD3Pjbxjj1mFjU8-1" vertex="1">
          <mxGeometry x="285" y="480" width="120" height="80" as="geometry" />
        </mxCell>
        <mxCell id="hKUapLD3Pjbxjj1mFjU8-9" value="Operational&lt;br&gt;Excellence" style="ellipse;whiteSpace=wrap;html=1;" parent="hKUapLD3Pjbxjj1mFjU8-1" vertex="1">
          <mxGeometry x="80" y="480" width="120" height="80" as="geometry" />
        </mxCell>
        <mxCell id="hKUapLD3Pjbxjj1mFjU8-10" value="Operations&lt;br&gt;Data" style="ellipse;whiteSpace=wrap;html=1;fillColor=#fff2cc;strokeColor=#d6b656;" parent="hKUapLD3Pjbxjj1mFjU8-1" vertex="1">
          <mxGeometry x="31" y="300" width="160" height="80" as="geometry" />
        </mxCell>
        <mxCell id="hKUapLD3Pjbxjj1mFjU8-11" value="" style="endArrow=none;html=1;rounded=0;entryX=0.5;entryY=0;entryDx=0;entryDy=0;exitX=0.5;exitY=1;exitDx=0;exitDy=0;dashed=1;" parent="hKUapLD3Pjbxjj1mFjU8-1" source="hKUapLD3Pjbxjj1mFjU8-2" target="hKUapLD3Pjbxjj1mFjU8-8" edge="1">
          <mxGeometry width="50" height="50" relative="1" as="geometry">
            <mxPoint x="251" y="350" as="sourcePoint" />
            <mxPoint x="181" y="520" as="targetPoint" />
          </mxGeometry>
        </mxCell>
        <mxCell id="hKUapLD3Pjbxjj1mFjU8-12" value="" style="endArrow=none;html=1;rounded=0;entryX=0;entryY=0.5;entryDx=0;entryDy=0;" parent="hKUapLD3Pjbxjj1mFjU8-1" target="hKUapLD3Pjbxjj1mFjU8-7" edge="1">
          <mxGeometry width="50" height="50" relative="1" as="geometry">
            <mxPoint x="425" y="340" as="sourcePoint" />
            <mxPoint x="475" y="290" as="targetPoint" />
          </mxGeometry>
        </mxCell>
        <mxCell id="hKUapLD3Pjbxjj1mFjU8-13" value="" style="endArrow=none;html=1;rounded=0;exitX=1;exitY=0.5;exitDx=0;exitDy=0;entryX=0;entryY=0.5;entryDx=0;entryDy=0;" parent="hKUapLD3Pjbxjj1mFjU8-1" source="hKUapLD3Pjbxjj1mFjU8-10" target="hKUapLD3Pjbxjj1mFjU8-2" edge="1">
          <mxGeometry width="50" height="50" relative="1" as="geometry">
            <mxPoint x="370" y="410" as="sourcePoint" />
            <mxPoint x="270" y="340" as="targetPoint" />
          </mxGeometry>
        </mxCell>
        <mxCell id="hKUapLD3Pjbxjj1mFjU8-14" value="Reliability" style="ellipse;whiteSpace=wrap;html=1;" parent="hKUapLD3Pjbxjj1mFjU8-1" vertex="1">
          <mxGeometry x="250" y="120" width="120" height="80" as="geometry" />
        </mxCell>
        <mxCell id="hKUapLD3Pjbxjj1mFjU8-15" value="Sustainability" style="ellipse;whiteSpace=wrap;html=1;" parent="hKUapLD3Pjbxjj1mFjU8-1" vertex="1">
          <mxGeometry x="570" y="120" width="120" height="80" as="geometry" />
        </mxCell>
        <mxCell id="hKUapLD3Pjbxjj1mFjU8-16" value="Actor" style="shape=umlActor;verticalLabelPosition=bottom;verticalAlign=top;html=1;outlineConnect=0;" parent="hKUapLD3Pjbxjj1mFjU8-1" vertex="1">
          <mxGeometry x="700" y="350" width="30" height="60" as="geometry" />
        </mxCell>
        <mxCell id="hKUapLD3Pjbxjj1mFjU8-17" value="Actor" style="shape=umlActor;verticalLabelPosition=bottom;verticalAlign=top;html=1;outlineConnect=0;" parent="hKUapLD3Pjbxjj1mFjU8-1" vertex="1">
          <mxGeometry x="750" y="390" width="30" height="60" as="geometry" />
        </mxCell>
      </root>
    </mxGraphModel>
  </diagram>
  <diagram name="4 Overlay" id="2yAFKiTEICXRUxU3iUiM">
    <mxGraphModel dx="975" dy="649" grid="1" gridSize="10" guides="1" tooltips="1" connect="1" arrows="1" fold="1" page="1" pageScale="1" pageWidth="850" pageHeight="1100" math="0" shadow="0">
      <root>
        <mxCell id="yLAUUBgCWh6Y361pBu2T-0" />
        <mxCell id="yLAUUBgCWh6Y361pBu2T-1" parent="yLAUUBgCWh6Y361pBu2T-0" />
        <mxCell id="yLAUUBgCWh6Y361pBu2T-2" value="Data Sets" style="swimlane;whiteSpace=wrap;html=1;shadow=0;strokeColor=default;fontSize=18;startSize=40;" vertex="1" parent="yLAUUBgCWh6Y361pBu2T-1">
          <mxGeometry x="80" y="80" width="180" height="380" as="geometry" />
        </mxCell>
        <mxCell id="yLAUUBgCWh6Y361pBu2T-3" value="&lt;font color=&quot;#9933ff&quot;&gt;Call Logs&lt;/font&gt; &amp;amp; Operations Data" style="rounded=1;whiteSpace=wrap;html=1;shadow=0;strokeColor=default;fontSize=18;" vertex="1" parent="yLAUUBgCWh6Y361pBu2T-2">
          <mxGeometry x="18" y="60" width="140" height="60" as="geometry" />
        </mxCell>
        <mxCell id="yLAUUBgCWh6Y361pBu2T-4" value="&lt;font color=&quot;#9933ff&quot;&gt;Emails&lt;/font&gt; &amp;amp; Operations Data" style="rounded=1;whiteSpace=wrap;html=1;shadow=0;strokeColor=default;fontSize=18;" vertex="1" parent="yLAUUBgCWh6Y361pBu2T-2">
          <mxGeometry x="18" y="140" width="140" height="60" as="geometry" />
        </mxCell>
        <mxCell id="yLAUUBgCWh6Y361pBu2T-5" value="&lt;font color=&quot;#9933ff&quot;&gt;&lt;span style=&quot;caret-color: rgb(153, 51, 255);&quot;&gt;...&lt;/span&gt;&lt;/font&gt;" style="rounded=1;whiteSpace=wrap;html=1;shadow=0;strokeColor=default;fontSize=18;" vertex="1" parent="yLAUUBgCWh6Y361pBu2T-2">
          <mxGeometry x="18" y="220" width="140" height="60" as="geometry" />
        </mxCell>
        <mxCell id="yLAUUBgCWh6Y361pBu2T-6" value="&lt;font color=&quot;#9933ff&quot;&gt;PII/Sensitive&lt;/font&gt; &amp;amp;&lt;br&gt;Operations Data" style="rounded=1;whiteSpace=wrap;html=1;shadow=0;strokeColor=default;fontSize=18;" vertex="1" parent="yLAUUBgCWh6Y361pBu2T-2">
          <mxGeometry x="20" y="300" width="140" height="60" as="geometry" />
        </mxCell>
        <mxCell id="yLAUUBgCWh6Y361pBu2T-7" value="&lt;font color=&quot;#000000&quot;&gt;Scrub Data&lt;/font&gt;" style="rounded=1;whiteSpace=wrap;html=1;shadow=0;labelBorderColor=none;strokeColor=default;fontSize=18;fontColor=#9933FF;" vertex="1" parent="yLAUUBgCWh6Y361pBu2T-1">
          <mxGeometry x="440" y="160" width="400" height="300" as="geometry" />
        </mxCell>
        <mxCell id="yLAUUBgCWh6Y361pBu2T-8" value="&lt;font color=&quot;#000000&quot;&gt;Revert Data&lt;/font&gt;" style="rounded=1;whiteSpace=wrap;html=1;shadow=0;labelBorderColor=none;strokeColor=default;fontSize=18;fontColor=#9933FF;" vertex="1" parent="yLAUUBgCWh6Y361pBu2T-1">
          <mxGeometry x="440" y="490" width="400" height="140" as="geometry" />
        </mxCell>
        <mxCell id="yLAUUBgCWh6Y361pBu2T-9" value="&lt;font color=&quot;#000000&quot;&gt;In-house&lt;br&gt;BA/DS&lt;/font&gt;" style="shape=umlActor;verticalLabelPosition=bottom;verticalAlign=top;html=1;outlineConnect=0;shadow=0;labelBorderColor=none;strokeColor=default;fontSize=18;fontColor=#9933FF;" vertex="1" parent="yLAUUBgCWh6Y361pBu2T-1">
          <mxGeometry x="140" y="530" width="30" height="60" as="geometry" />
        </mxCell>
        <mxCell id="yLAUUBgCWh6Y361pBu2T-10" value="" style="shape=cylinder3;whiteSpace=wrap;html=1;boundedLbl=1;backgroundOutline=1;size=15;shadow=0;strokeColor=#82b366;fontSize=18;fillColor=#d5e8d4;" vertex="1" parent="yLAUUBgCWh6Y361pBu2T-1">
          <mxGeometry x="910" y="230" width="140" height="140" as="geometry" />
        </mxCell>
        <mxCell id="yLAUUBgCWh6Y361pBu2T-11" value="Analytics&lt;br&gt;Data Store" style="text;html=1;strokeColor=none;fillColor=none;align=center;verticalAlign=middle;whiteSpace=wrap;rounded=0;shadow=0;labelBorderColor=none;fontSize=18;fontColor=#000000;" vertex="1" parent="yLAUUBgCWh6Y361pBu2T-1">
          <mxGeometry x="920" y="380" width="120" height="30" as="geometry" />
        </mxCell>
        <mxCell id="yLAUUBgCWh6Y361pBu2T-12" value="&lt;font color=&quot;#009900&quot;&gt;Scrubbed&lt;/font&gt;&lt;br&gt;&amp;amp; Ops Data" style="text;html=1;strokeColor=none;fillColor=none;align=center;verticalAlign=middle;whiteSpace=wrap;rounded=0;shadow=0;labelBorderColor=none;fontSize=18;fontColor=#000000;" vertex="1" parent="yLAUUBgCWh6Y361pBu2T-1">
          <mxGeometry x="910" y="285" width="140" height="30" as="geometry" />
        </mxCell>
        <mxCell id="yLAUUBgCWh6Y361pBu2T-13" value="ETL" style="rounded=1;whiteSpace=wrap;html=1;shadow=0;labelBorderColor=none;strokeColor=default;fontSize=18;fontColor=#000000;" vertex="1" parent="yLAUUBgCWh6Y361pBu2T-1">
          <mxGeometry x="300" y="80" width="80" height="380" as="geometry" />
        </mxCell>
        <mxCell id="yLAUUBgCWh6Y361pBu2T-14" value="" style="endArrow=classic;html=1;rounded=0;fontSize=18;fontColor=#000000;exitX=1.025;exitY=0.108;exitDx=0;exitDy=0;exitPerimeter=0;entryX=0.5;entryY=0;entryDx=0;entryDy=0;entryPerimeter=0;" edge="1" parent="yLAUUBgCWh6Y361pBu2T-1" source="yLAUUBgCWh6Y361pBu2T-13" target="yLAUUBgCWh6Y361pBu2T-10">
          <mxGeometry width="50" height="50" relative="1" as="geometry">
            <mxPoint x="540" y="370" as="sourcePoint" />
            <mxPoint x="590" y="320" as="targetPoint" />
            <Array as="points">
              <mxPoint x="980" y="120" />
            </Array>
          </mxGeometry>
        </mxCell>
        <mxCell id="yLAUUBgCWh6Y361pBu2T-15" value="Operations Data" style="text;html=1;strokeColor=none;fillColor=none;align=center;verticalAlign=middle;whiteSpace=wrap;rounded=0;shadow=0;labelBorderColor=none;fontSize=18;fontColor=#000000;" vertex="1" parent="yLAUUBgCWh6Y361pBu2T-1">
          <mxGeometry x="545" y="90" width="190" height="30" as="geometry" />
        </mxCell>
        <mxCell id="yLAUUBgCWh6Y361pBu2T-16" value="" style="endArrow=classic;html=1;rounded=0;fontSize=18;fontColor=#000000;entryX=0;entryY=0.5;entryDx=0;entryDy=0;" edge="1" parent="yLAUUBgCWh6Y361pBu2T-1" target="yLAUUBgCWh6Y361pBu2T-7">
          <mxGeometry width="50" height="50" relative="1" as="geometry">
            <mxPoint x="380" y="310" as="sourcePoint" />
            <mxPoint x="610" y="320" as="targetPoint" />
          </mxGeometry>
        </mxCell>
        <mxCell id="yLAUUBgCWh6Y361pBu2T-17" value="Debug,&lt;br&gt;Reports,&lt;br&gt;..." style="rounded=1;whiteSpace=wrap;html=1;shadow=0;labelBorderColor=none;strokeColor=default;fontSize=18;fontColor=#000000;" vertex="1" parent="yLAUUBgCWh6Y361pBu2T-1">
          <mxGeometry x="300" y="490" width="80" height="150" as="geometry" />
        </mxCell>
        <mxCell id="yLAUUBgCWh6Y361pBu2T-18" value="&lt;font color=&quot;#9933ff&quot;&gt;PII/Sensitive&lt;/font&gt;" style="text;html=1;strokeColor=none;fillColor=none;align=center;verticalAlign=middle;whiteSpace=wrap;rounded=0;shadow=0;labelBorderColor=none;fontSize=18;fontColor=#000000;" vertex="1" parent="yLAUUBgCWh6Y361pBu2T-1">
          <mxGeometry x="350" y="310" width="120" height="30" as="geometry" />
        </mxCell>
        <mxCell id="yLAUUBgCWh6Y361pBu2T-19" value="" style="endArrow=classic;html=1;rounded=0;fontSize=18;fontColor=#000000;entryX=0;entryY=0.5;entryDx=0;entryDy=0;" edge="1" parent="yLAUUBgCWh6Y361pBu2T-1" target="yLAUUBgCWh6Y361pBu2T-12">
          <mxGeometry width="50" height="50" relative="1" as="geometry">
            <mxPoint x="840" y="300" as="sourcePoint" />
            <mxPoint x="900" y="300" as="targetPoint" />
          </mxGeometry>
        </mxCell>
        <mxCell id="yLAUUBgCWh6Y361pBu2T-20" value="&lt;font color=&quot;#009900&quot;&gt;Scrubbed&lt;/font&gt;" style="text;html=1;strokeColor=none;fillColor=none;align=center;verticalAlign=middle;whiteSpace=wrap;rounded=0;shadow=0;labelBorderColor=none;fontSize=18;fontColor=#000000;" vertex="1" parent="yLAUUBgCWh6Y361pBu2T-1">
          <mxGeometry x="820" y="300" width="120" height="30" as="geometry" />
        </mxCell>
        <mxCell id="yLAUUBgCWh6Y361pBu2T-21" value="" style="endArrow=classic;html=1;rounded=0;fontSize=18;fontColor=#000000;entryX=0;entryY=0.5;entryDx=0;entryDy=0;" edge="1" parent="yLAUUBgCWh6Y361pBu2T-1">
          <mxGeometry width="50" height="50" relative="1" as="geometry">
            <mxPoint x="380" y="540" as="sourcePoint" />
            <mxPoint x="450" y="540" as="targetPoint" />
          </mxGeometry>
        </mxCell>
        <mxCell id="yLAUUBgCWh6Y361pBu2T-22" value="&lt;font color=&quot;#009900&quot;&gt;Scrubbed&lt;/font&gt;" style="text;html=1;strokeColor=none;fillColor=none;align=center;verticalAlign=middle;whiteSpace=wrap;rounded=0;shadow=0;labelBorderColor=none;fontSize=18;fontColor=#000000;" vertex="1" parent="yLAUUBgCWh6Y361pBu2T-1">
          <mxGeometry x="350" y="510" width="120" height="30" as="geometry" />
        </mxCell>
        <mxCell id="yLAUUBgCWh6Y361pBu2T-23" value="&lt;font color=&quot;#9933ff&quot;&gt;PII/Sensitive&lt;/font&gt;" style="text;html=1;strokeColor=none;fillColor=none;align=center;verticalAlign=middle;whiteSpace=wrap;rounded=0;shadow=0;labelBorderColor=none;fontSize=18;fontColor=#000000;" vertex="1" parent="yLAUUBgCWh6Y361pBu2T-1">
          <mxGeometry x="350" y="600" width="120" height="30" as="geometry" />
        </mxCell>
        <mxCell id="yLAUUBgCWh6Y361pBu2T-24" value="" style="endArrow=classic;html=1;rounded=0;fontSize=18;fontColor=#000000;entryX=0.25;entryY=0;entryDx=0;entryDy=0;exitX=0.75;exitY=0;exitDx=0;exitDy=0;" edge="1" parent="yLAUUBgCWh6Y361pBu2T-1" source="yLAUUBgCWh6Y361pBu2T-23" target="yLAUUBgCWh6Y361pBu2T-23">
          <mxGeometry width="50" height="50" relative="1" as="geometry">
            <mxPoint x="560" y="370" as="sourcePoint" />
            <mxPoint x="610" y="320" as="targetPoint" />
          </mxGeometry>
        </mxCell>
      </root>
    </mxGraphModel>
  </diagram>
  <diagram name="Sol. Arch." id="Pxs4AW8mcZMA4PWBvVg7">
    <mxGraphModel dx="2469" dy="865" grid="1" gridSize="10" guides="1" tooltips="1" connect="1" arrows="1" fold="1" page="1" pageScale="1" pageWidth="1169" pageHeight="827" math="0" shadow="0">
      <root>
        <mxCell id="VFhjv_6CdZRBxOUoINTJ-0" />
        <mxCell id="VFhjv_6CdZRBxOUoINTJ-1" parent="VFhjv_6CdZRBxOUoINTJ-0" />
        <mxCell id="oQMyufxJHY6rhSrre_w8-0" value="" style="rounded=1;whiteSpace=wrap;html=1;shadow=0;labelBorderColor=none;strokeColor=default;fontSize=18;fontColor=#000000;" vertex="1" parent="VFhjv_6CdZRBxOUoINTJ-1">
          <mxGeometry x="940" y="58" width="201" height="552" as="geometry" />
        </mxCell>
        <mxCell id="s4qD_IEjaCSN6ZFqjztM-2" value="" style="rounded=1;whiteSpace=wrap;html=1;shadow=0;labelBorderColor=none;strokeColor=default;fontSize=18;fontColor=#000000;" vertex="1" parent="VFhjv_6CdZRBxOUoINTJ-1">
          <mxGeometry x="520" y="370" width="410" height="240" as="geometry" />
        </mxCell>
        <mxCell id="s4qD_IEjaCSN6ZFqjztM-1" value="" style="rounded=1;whiteSpace=wrap;html=1;shadow=0;labelBorderColor=none;strokeColor=default;fontSize=18;fontColor=#000000;" vertex="1" parent="VFhjv_6CdZRBxOUoINTJ-1">
          <mxGeometry x="520" y="56" width="410" height="304" as="geometry" />
        </mxCell>
        <mxCell id="s4qD_IEjaCSN6ZFqjztM-0" value="" style="rounded=1;whiteSpace=wrap;html=1;shadow=0;labelBorderColor=none;strokeColor=default;fontSize=18;fontColor=#000000;" vertex="1" parent="VFhjv_6CdZRBxOUoINTJ-1">
          <mxGeometry x="309" y="58" width="201" height="552" as="geometry" />
        </mxCell>
        <mxCell id="VFhjv_6CdZRBxOUoINTJ-16" value="Lambda" style="outlineConnect=0;fontColor=#232F3E;gradientColor=#F78E04;gradientDirection=north;fillColor=#D05C17;strokeColor=#ffffff;dashed=0;verticalLabelPosition=bottom;verticalAlign=top;align=center;html=1;fontSize=12;fontStyle=0;aspect=fixed;shape=mxgraph.aws4.resourceIcon;resIcon=mxgraph.aws4.lambda;labelBackgroundColor=#ffffff;spacingTop=3;" parent="VFhjv_6CdZRBxOUoINTJ-1" vertex="1">
          <mxGeometry x="459" y="677" width="78" height="78" as="geometry" />
        </mxCell>
        <mxCell id="VFhjv_6CdZRBxOUoINTJ-18" value="Lambda&lt;br&gt;function" style="outlineConnect=0;fontColor=#232F3E;gradientColor=none;fillColor=#D05C17;strokeColor=none;dashed=0;verticalLabelPosition=bottom;verticalAlign=top;align=center;html=1;fontSize=12;fontStyle=0;aspect=fixed;pointerEvents=1;shape=mxgraph.aws4.lambda_function;labelBackgroundColor=#ffffff;" parent="VFhjv_6CdZRBxOUoINTJ-1" vertex="1">
          <mxGeometry x="697" y="176" width="78" height="78" as="geometry" />
        </mxCell>
        <mxCell id="VFhjv_6CdZRBxOUoINTJ-19" value="Amazon&lt;br&gt;DynamoDB&lt;br&gt;" style="outlineConnect=0;fontColor=#232F3E;gradientColor=#4D72F3;gradientDirection=north;fillColor=#3334B9;strokeColor=#ffffff;dashed=0;verticalLabelPosition=bottom;verticalAlign=top;align=center;html=1;fontSize=12;fontStyle=0;aspect=fixed;shape=mxgraph.aws4.resourceIcon;resIcon=mxgraph.aws4.dynamodb;labelBackgroundColor=#ffffff;spacingTop=5;" parent="VFhjv_6CdZRBxOUoINTJ-1" vertex="1">
          <mxGeometry x="697.0000000000002" y="320" width="78" height="78" as="geometry" />
        </mxCell>
        <mxCell id="VFhjv_6CdZRBxOUoINTJ-20" value="Amazon&lt;br&gt;CloudWatch&lt;br&gt;" style="outlineConnect=0;fontColor=#232F3E;gradientColor=#F34482;gradientDirection=north;fillColor=#BC1356;strokeColor=#ffffff;dashed=0;verticalLabelPosition=bottom;verticalAlign=top;align=center;html=1;fontSize=12;fontStyle=0;aspect=fixed;shape=mxgraph.aws4.resourceIcon;resIcon=mxgraph.aws4.cloudwatch;labelBackgroundColor=#ffffff;" parent="VFhjv_6CdZRBxOUoINTJ-1" vertex="1">
          <mxGeometry x="644.5000000000002" y="677" width="78" height="78" as="geometry" />
        </mxCell>
        <mxCell id="VFhjv_6CdZRBxOUoINTJ-21" value="IAM Roles" style="outlineConnect=0;fontColor=#232F3E;gradientColor=none;fillColor=#C7131F;strokeColor=none;dashed=0;verticalLabelPosition=bottom;verticalAlign=top;align=center;html=1;fontSize=12;fontStyle=0;aspect=fixed;pointerEvents=1;shape=mxgraph.aws4.role;labelBackgroundColor=#ffffff;" parent="VFhjv_6CdZRBxOUoINTJ-1" vertex="1">
          <mxGeometry x="100.00000000000023" y="690" width="78" height="44" as="geometry" />
        </mxCell>
        <mxCell id="VFhjv_6CdZRBxOUoINTJ-23" value="" style="sketch=0;points=[[0,0,0],[0.25,0,0],[0.5,0,0],[0.75,0,0],[1,0,0],[0,1,0],[0.25,1,0],[0.5,1,0],[0.75,1,0],[1,1,0],[0,0.25,0],[0,0.5,0],[0,0.75,0],[1,0.25,0],[1,0.5,0],[1,0.75,0]];outlineConnect=0;fontColor=#232F3E;gradientColor=#4AB29A;gradientDirection=north;fillColor=#116D5B;strokeColor=#ffffff;dashed=0;verticalLabelPosition=bottom;verticalAlign=top;align=center;html=1;fontSize=12;fontStyle=0;aspect=fixed;shape=mxgraph.aws4.resourceIcon;resIcon=mxgraph.aws4.comprehend;" parent="VFhjv_6CdZRBxOUoINTJ-1" vertex="1">
          <mxGeometry x="566.5" y="128" width="78" height="78" as="geometry" />
        </mxCell>
        <mxCell id="VFhjv_6CdZRBxOUoINTJ-24" value="" style="sketch=0;points=[[0,0,0],[0.25,0,0],[0.5,0,0],[0.75,0,0],[1,0,0],[0,1,0],[0.25,1,0],[0.5,1,0],[0.75,1,0],[1,1,0],[0,0.25,0],[0,0.5,0],[0,0.75,0],[1,0.25,0],[1,0.5,0],[1,0.75,0]];outlineConnect=0;fontColor=#232F3E;gradientColor=#4AB29A;gradientDirection=north;fillColor=#116D5B;strokeColor=#ffffff;dashed=0;verticalLabelPosition=bottom;verticalAlign=top;align=center;html=1;fontSize=12;fontStyle=0;aspect=fixed;shape=mxgraph.aws4.resourceIcon;resIcon=mxgraph.aws4.elastic_inference_2;" parent="VFhjv_6CdZRBxOUoINTJ-1" vertex="1">
          <mxGeometry x="820" y="128" width="78" height="78" as="geometry" />
        </mxCell>
        <mxCell id="VFhjv_6CdZRBxOUoINTJ-25" value="Amazon SageMaker" style="sketch=0;outlineConnect=0;fontColor=#232F3E;gradientColor=none;strokeColor=#ffffff;fillColor=#232F3E;dashed=0;verticalLabelPosition=middle;verticalAlign=bottom;align=center;html=1;whiteSpace=wrap;fontSize=10;fontStyle=1;spacing=3;shape=mxgraph.aws4.productIcon;prIcon=mxgraph.aws4.sagemaker;" parent="VFhjv_6CdZRBxOUoINTJ-1" vertex="1">
          <mxGeometry x="810" y="677" width="80" height="110" as="geometry" />
        </mxCell>
        <mxCell id="Ark5ETBW-HOwH73XzTa0-1" value="" style="sketch=0;points=[[0,0,0],[0.25,0,0],[0.5,0,0],[0.75,0,0],[1,0,0],[0,1,0],[0.25,1,0],[0.5,1,0],[0.75,1,0],[1,1,0],[0,0.25,0],[0,0.5,0],[0,0.75,0],[1,0.25,0],[1,0.5,0],[1,0.75,0]];outlineConnect=0;fontColor=#232F3E;gradientColor=#60A337;gradientDirection=north;fillColor=#277116;strokeColor=#ffffff;dashed=0;verticalLabelPosition=bottom;verticalAlign=top;align=center;html=1;fontSize=12;fontStyle=0;aspect=fixed;shape=mxgraph.aws4.resourceIcon;resIcon=mxgraph.aws4.s3;" parent="VFhjv_6CdZRBxOUoINTJ-1" vertex="1">
          <mxGeometry x="290" y="677" width="78" height="78" as="geometry" />
        </mxCell>
        <mxCell id="Ark5ETBW-HOwH73XzTa0-2" value="" style="sketch=0;outlineConnect=0;fontColor=#232F3E;gradientColor=none;fillColor=#3F8624;strokeColor=none;dashed=0;verticalLabelPosition=bottom;verticalAlign=top;align=center;html=1;fontSize=12;fontStyle=0;aspect=fixed;pointerEvents=1;shape=mxgraph.aws4.bucket;" parent="VFhjv_6CdZRBxOUoINTJ-1" vertex="1">
          <mxGeometry x="380" y="143" width="46.15" height="48" as="geometry" />
        </mxCell>
        <mxCell id="Ark5ETBW-HOwH73XzTa0-4" value="Lambda&lt;br&gt;function" style="outlineConnect=0;fontColor=#232F3E;gradientColor=none;fillColor=#D05C17;strokeColor=none;dashed=0;verticalLabelPosition=bottom;verticalAlign=top;align=center;html=1;fontSize=12;fontStyle=0;aspect=fixed;pointerEvents=1;shape=mxgraph.aws4.lambda_function;labelBackgroundColor=#ffffff;" parent="VFhjv_6CdZRBxOUoINTJ-1" vertex="1">
          <mxGeometry x="697" y="460" width="78" height="78" as="geometry" />
        </mxCell>
        <mxCell id="Ark5ETBW-HOwH73XzTa0-6" value="" style="sketch=0;outlineConnect=0;fontColor=#232F3E;gradientColor=none;fillColor=#3F8624;strokeColor=none;dashed=0;verticalLabelPosition=bottom;verticalAlign=top;align=center;html=1;fontSize=12;fontStyle=0;aspect=fixed;pointerEvents=1;shape=mxgraph.aws4.bucket;" parent="VFhjv_6CdZRBxOUoINTJ-1" vertex="1">
          <mxGeometry x="1017.42" y="320" width="46.15" height="48" as="geometry" />
        </mxCell>
        <mxCell id="Ark5ETBW-HOwH73XzTa0-9" value="" style="endArrow=none;html=1;rounded=0;" parent="VFhjv_6CdZRBxOUoINTJ-1" edge="1">
          <mxGeometry width="50" height="50" relative="1" as="geometry">
            <mxPoint x="80" y="640" as="sourcePoint" />
            <mxPoint x="1080" y="640" as="targetPoint" />
          </mxGeometry>
        </mxCell>
        <mxCell id="5re4wlxVzB-sKWRfSrz--0" value="Amazon API&lt;br&gt;Gateway&lt;br&gt;" style="outlineConnect=0;fontColor=#232F3E;gradientColor=#945DF2;gradientDirection=north;fillColor=#5A30B5;strokeColor=#ffffff;dashed=0;verticalLabelPosition=bottom;verticalAlign=top;align=center;html=1;fontSize=12;fontStyle=0;aspect=fixed;shape=mxgraph.aws4.resourceIcon;resIcon=mxgraph.aws4.api_gateway;labelBackgroundColor=#ffffff;" parent="VFhjv_6CdZRBxOUoINTJ-1" vertex="1">
          <mxGeometry x="408" y="320" width="78" height="78" as="geometry" />
        </mxCell>
        <mxCell id="Qf_sdP1w3aKLSnZnmLe_-0" value="Data Sets" style="swimlane;whiteSpace=wrap;html=1;shadow=0;strokeColor=default;fontSize=18;startSize=40;" vertex="1" parent="VFhjv_6CdZRBxOUoINTJ-1">
          <mxGeometry x="-100" y="58" width="180" height="380" as="geometry" />
        </mxCell>
        <mxCell id="Qf_sdP1w3aKLSnZnmLe_-1" value="&lt;font color=&quot;#9933ff&quot;&gt;Call Logs&lt;/font&gt;&amp;nbsp;" style="rounded=1;whiteSpace=wrap;html=1;shadow=0;strokeColor=default;fontSize=18;" vertex="1" parent="Qf_sdP1w3aKLSnZnmLe_-0">
          <mxGeometry x="18" y="60" width="140" height="60" as="geometry" />
        </mxCell>
        <mxCell id="Qf_sdP1w3aKLSnZnmLe_-2" value="&lt;font color=&quot;#9933ff&quot;&gt;Emails&lt;/font&gt;&amp;nbsp;" style="rounded=1;whiteSpace=wrap;html=1;shadow=0;strokeColor=default;fontSize=18;" vertex="1" parent="Qf_sdP1w3aKLSnZnmLe_-0">
          <mxGeometry x="18" y="140" width="140" height="60" as="geometry" />
        </mxCell>
        <mxCell id="Qf_sdP1w3aKLSnZnmLe_-3" value="&lt;font color=&quot;#9933ff&quot;&gt;&lt;span style=&quot;caret-color: rgb(153, 51, 255);&quot;&gt;...&lt;/span&gt;&lt;/font&gt;" style="rounded=1;whiteSpace=wrap;html=1;shadow=0;strokeColor=default;fontSize=18;" vertex="1" parent="Qf_sdP1w3aKLSnZnmLe_-0">
          <mxGeometry x="18" y="220" width="140" height="60" as="geometry" />
        </mxCell>
        <mxCell id="Qf_sdP1w3aKLSnZnmLe_-4" value="&lt;font color=&quot;#9933ff&quot;&gt;PII/Sensitive&lt;/font&gt;&amp;nbsp;" style="rounded=1;whiteSpace=wrap;html=1;shadow=0;strokeColor=default;fontSize=18;" vertex="1" parent="Qf_sdP1w3aKLSnZnmLe_-0">
          <mxGeometry x="20" y="300" width="140" height="60" as="geometry" />
        </mxCell>
        <mxCell id="Qf_sdP1w3aKLSnZnmLe_-5" value="&lt;font color=&quot;#000000&quot;&gt;In-house&lt;br&gt;BA/DS&lt;/font&gt;" style="shape=umlActor;verticalLabelPosition=bottom;verticalAlign=top;html=1;outlineConnect=0;shadow=0;labelBorderColor=none;strokeColor=default;fontSize=18;fontColor=#9933FF;" vertex="1" parent="VFhjv_6CdZRBxOUoINTJ-1">
          <mxGeometry x="-40" y="508" width="30" height="60" as="geometry" />
        </mxCell>
        <mxCell id="Qf_sdP1w3aKLSnZnmLe_-6" value="ETL" style="rounded=1;whiteSpace=wrap;html=1;shadow=0;labelBorderColor=none;strokeColor=default;fontSize=18;fontColor=#000000;" vertex="1" parent="VFhjv_6CdZRBxOUoINTJ-1">
          <mxGeometry x="120" y="58" width="80" height="380" as="geometry" />
        </mxCell>
        <mxCell id="Qf_sdP1w3aKLSnZnmLe_-7" value="" style="endArrow=classic;html=1;rounded=0;fontSize=18;fontColor=#000000;exitX=1.025;exitY=0.268;exitDx=0;exitDy=0;exitPerimeter=0;" edge="1" parent="VFhjv_6CdZRBxOUoINTJ-1" source="Qf_sdP1w3aKLSnZnmLe_-6">
          <mxGeometry width="50" height="50" relative="1" as="geometry">
            <mxPoint x="200" y="158.5" as="sourcePoint" />
            <mxPoint x="290" y="160" as="targetPoint" />
          </mxGeometry>
        </mxCell>
        <mxCell id="Qf_sdP1w3aKLSnZnmLe_-8" value="Debug,&lt;br&gt;Reports,&lt;br&gt;..." style="rounded=1;whiteSpace=wrap;html=1;shadow=0;labelBorderColor=none;strokeColor=default;fontSize=18;fontColor=#000000;" vertex="1" parent="VFhjv_6CdZRBxOUoINTJ-1">
          <mxGeometry x="120" y="468" width="80" height="150" as="geometry" />
        </mxCell>
        <mxCell id="Qf_sdP1w3aKLSnZnmLe_-10" value="" style="endArrow=classic;html=1;rounded=0;fontSize=18;fontColor=#000000;entryX=0;entryY=0.5;entryDx=0;entryDy=0;" edge="1" parent="VFhjv_6CdZRBxOUoINTJ-1">
          <mxGeometry width="50" height="50" relative="1" as="geometry">
            <mxPoint x="200" y="518" as="sourcePoint" />
            <mxPoint x="270" y="518" as="targetPoint" />
          </mxGeometry>
        </mxCell>
        <mxCell id="Qf_sdP1w3aKLSnZnmLe_-11" value="&lt;font color=&quot;#009900&quot;&gt;Scrubbed&lt;/font&gt;" style="text;html=1;strokeColor=none;fillColor=none;align=center;verticalAlign=middle;whiteSpace=wrap;rounded=0;shadow=0;labelBorderColor=none;fontSize=18;fontColor=#000000;" vertex="1" parent="VFhjv_6CdZRBxOUoINTJ-1">
          <mxGeometry x="170" y="488" width="120" height="30" as="geometry" />
        </mxCell>
        <mxCell id="Qf_sdP1w3aKLSnZnmLe_-12" value="&lt;font color=&quot;#9933ff&quot;&gt;PII/Sensitive&lt;/font&gt;" style="text;html=1;strokeColor=none;fillColor=none;align=center;verticalAlign=middle;whiteSpace=wrap;rounded=0;shadow=0;labelBorderColor=none;fontSize=18;fontColor=#000000;" vertex="1" parent="VFhjv_6CdZRBxOUoINTJ-1">
          <mxGeometry x="170" y="578" width="120" height="30" as="geometry" />
        </mxCell>
        <mxCell id="Qf_sdP1w3aKLSnZnmLe_-13" value="" style="endArrow=classic;html=1;rounded=0;fontSize=18;fontColor=#000000;entryX=0.25;entryY=0;entryDx=0;entryDy=0;exitX=0.75;exitY=0;exitDx=0;exitDy=0;" edge="1" parent="VFhjv_6CdZRBxOUoINTJ-1" source="Qf_sdP1w3aKLSnZnmLe_-12" target="Qf_sdP1w3aKLSnZnmLe_-12">
          <mxGeometry width="50" height="50" relative="1" as="geometry">
            <mxPoint x="380" y="348" as="sourcePoint" />
            <mxPoint x="430" y="298" as="targetPoint" />
          </mxGeometry>
        </mxCell>
        <mxCell id="Qf_sdP1w3aKLSnZnmLe_-14" value="" style="endArrow=classic;html=1;rounded=0;fontSize=18;fontColor=#000000;exitX=1.025;exitY=0.268;exitDx=0;exitDy=0;exitPerimeter=0;" edge="1" parent="VFhjv_6CdZRBxOUoINTJ-1">
          <mxGeometry width="50" height="50" relative="1" as="geometry">
            <mxPoint x="200" y="358.33" as="sourcePoint" />
            <mxPoint x="288" y="358.48999999999995" as="targetPoint" />
          </mxGeometry>
        </mxCell>
        <mxCell id="Qf_sdP1w3aKLSnZnmLe_-15" value="" style="sketch=0;points=[[0,0,0],[0.25,0,0],[0.5,0,0],[0.75,0,0],[1,0,0],[0,1,0],[0.25,1,0],[0.5,1,0],[0.75,1,0],[1,1,0],[0,0.25,0],[0,0.5,0],[0,0.75,0],[1,0.25,0],[1,0.5,0],[1,0.75,0]];outlineConnect=0;fontColor=#232F3E;gradientColor=#F54749;gradientDirection=north;fillColor=#C7131F;strokeColor=#ffffff;dashed=0;verticalLabelPosition=bottom;verticalAlign=top;align=center;html=1;fontSize=12;fontStyle=0;aspect=fixed;shape=mxgraph.aws4.resourceIcon;resIcon=mxgraph.aws4.network_firewall;shadow=0;labelBorderColor=none;" vertex="1" parent="VFhjv_6CdZRBxOUoINTJ-1">
          <mxGeometry x="330" y="320" width="78" height="78" as="geometry" />
        </mxCell>
      </root>
    </mxGraphModel>
  </diagram>
  <diagram id="Sl1QYkkVfb76B0ZFffT5" name="Cloud Arch.">
    <mxGraphModel dx="975" dy="649" grid="1" gridSize="10" guides="1" tooltips="1" connect="1" arrows="1" fold="1" page="1" pageScale="1" pageWidth="850" pageHeight="1100" math="0" shadow="0">
      <root>
        <mxCell id="0" />
        <mxCell id="1" parent="0" />
      </root>
    </mxGraphModel>
  </diagram>
  <diagram id="BXo77lAgG9FU17EozOgL" name="Meeting Notes">
    <mxGraphModel dx="975" dy="649" grid="1" gridSize="10" guides="1" tooltips="1" connect="1" arrows="1" fold="1" page="1" pageScale="1" pageWidth="850" pageHeight="1100" math="0" shadow="0">
      <root>
        <mxCell id="0" />
        <mxCell id="1" parent="0" />
        <mxCell id="5N7ZbJTw_4b1dOMRKxE2-1" value="&lt;h1&gt;Toby Fotherby&lt;/h1&gt;&lt;p&gt;Sr. AI/ML Specialist Solutions Architect&lt;/p&gt;&lt;p&gt;fotherby@amazon.com&lt;/p&gt;" style="text;html=1;strokeColor=none;fillColor=none;spacing=5;spacingTop=-20;whiteSpace=wrap;overflow=hidden;rounded=0;" parent="1" vertex="1">
          <mxGeometry x="770" y="20" width="240" height="120" as="geometry" />
        </mxCell>
        <mxCell id="5N7ZbJTw_4b1dOMRKxE2-3" value="&lt;h1&gt;Parking Lot / Follow-up&lt;/h1&gt;&lt;h1&gt;&lt;ul&gt;&lt;li&gt;&lt;font style=&quot;font-size: 18px;&quot;&gt;&lt;span style=&quot;font-weight: normal;&quot;&gt;Lorem ipsum ...&lt;/span&gt;&lt;br&gt;&lt;/font&gt;&lt;/li&gt;&lt;li&gt;&lt;span style=&quot;font-weight: 400;&quot;&gt;&lt;font style=&quot;font-size: 18px;&quot;&gt;Lorem ipsum ...&lt;/font&gt;&lt;/span&gt;&lt;br&gt;&lt;/li&gt;&lt;/ul&gt;&lt;/h1&gt;" style="text;html=1;strokeColor=default;fillColor=none;spacing=5;spacingTop=-20;whiteSpace=wrap;overflow=hidden;rounded=0;shadow=0;" parent="1" vertex="1">
          <mxGeometry x="40" y="80" width="330" height="120" as="geometry" />
        </mxCell>
        <mxCell id="livCL_kwqiCR4SOGYSZk-3" value="&lt;h1&gt;Notes: Requirements, Objectives, etc,&lt;/h1&gt;&lt;h1&gt;&lt;ul&gt;&lt;li&gt;&lt;font style=&quot;font-size: 18px;&quot;&gt;&lt;span style=&quot;font-weight: normal;&quot;&gt;Lorem ipsum ...&lt;/span&gt;&lt;br&gt;&lt;/font&gt;&lt;/li&gt;&lt;li&gt;&lt;span style=&quot;font-weight: 400;&quot;&gt;&lt;font style=&quot;font-size: 18px;&quot;&gt;Lorem ipsum ...&lt;/font&gt;&lt;/span&gt;&lt;br&gt;&lt;/li&gt;&lt;/ul&gt;&lt;/h1&gt;" style="text;html=1;strokeColor=default;fillColor=none;spacing=5;spacingTop=-20;whiteSpace=wrap;overflow=hidden;rounded=0;" parent="1" vertex="1">
          <mxGeometry x="40" y="320" width="330" height="240" as="geometry" />
        </mxCell>
      </root>
    </mxGraphModel>
  </diagram>
  <diagram name="Copy of Sol. Arch." id="RAH_sndSNZDJpz-ede87">
    <mxGraphModel dx="975" dy="649" grid="1" gridSize="10" guides="1" tooltips="1" connect="1" arrows="1" fold="1" page="1" pageScale="1" pageWidth="1169" pageHeight="827" math="0" shadow="0">
      <root>
        <mxCell id="cjUdcqoHkft8Fekm1WI9-0" />
        <mxCell id="cjUdcqoHkft8Fekm1WI9-1" parent="cjUdcqoHkft8Fekm1WI9-0" />
        <mxCell id="cjUdcqoHkft8Fekm1WI9-2" value="Lambda" style="outlineConnect=0;fontColor=#232F3E;gradientColor=#F78E04;gradientDirection=north;fillColor=#D05C17;strokeColor=#ffffff;dashed=0;verticalLabelPosition=bottom;verticalAlign=top;align=center;html=1;fontSize=12;fontStyle=0;aspect=fixed;shape=mxgraph.aws4.resourceIcon;resIcon=mxgraph.aws4.lambda;labelBackgroundColor=#ffffff;spacingTop=3;" vertex="1" parent="cjUdcqoHkft8Fekm1WI9-1">
          <mxGeometry x="459" y="677" width="78" height="78" as="geometry" />
        </mxCell>
        <mxCell id="cjUdcqoHkft8Fekm1WI9-3" value="Lambda&lt;br&gt;function" style="outlineConnect=0;fontColor=#232F3E;gradientColor=none;fillColor=#D05C17;strokeColor=none;dashed=0;verticalLabelPosition=bottom;verticalAlign=top;align=center;html=1;fontSize=12;fontStyle=0;aspect=fixed;pointerEvents=1;shape=mxgraph.aws4.lambda_function;labelBackgroundColor=#ffffff;" vertex="1" parent="cjUdcqoHkft8Fekm1WI9-1">
          <mxGeometry x="466" y="220" width="78" height="78" as="geometry" />
        </mxCell>
        <mxCell id="cjUdcqoHkft8Fekm1WI9-4" value="Amazon&lt;br&gt;DynamoDB&lt;br&gt;" style="outlineConnect=0;fontColor=#232F3E;gradientColor=#4D72F3;gradientDirection=north;fillColor=#3334B9;strokeColor=#ffffff;dashed=0;verticalLabelPosition=bottom;verticalAlign=top;align=center;html=1;fontSize=12;fontStyle=0;aspect=fixed;shape=mxgraph.aws4.resourceIcon;resIcon=mxgraph.aws4.dynamodb;labelBackgroundColor=#ffffff;spacingTop=5;" vertex="1" parent="cjUdcqoHkft8Fekm1WI9-1">
          <mxGeometry x="610.0000000000002" y="320" width="78" height="78" as="geometry" />
        </mxCell>
        <mxCell id="cjUdcqoHkft8Fekm1WI9-5" value="Amazon&lt;br&gt;CloudWatch&lt;br&gt;" style="outlineConnect=0;fontColor=#232F3E;gradientColor=#F34482;gradientDirection=north;fillColor=#BC1356;strokeColor=#ffffff;dashed=0;verticalLabelPosition=bottom;verticalAlign=top;align=center;html=1;fontSize=12;fontStyle=0;aspect=fixed;shape=mxgraph.aws4.resourceIcon;resIcon=mxgraph.aws4.cloudwatch;labelBackgroundColor=#ffffff;" vertex="1" parent="cjUdcqoHkft8Fekm1WI9-1">
          <mxGeometry x="644.5000000000002" y="677" width="78" height="78" as="geometry" />
        </mxCell>
        <mxCell id="cjUdcqoHkft8Fekm1WI9-6" value="IAM Roles" style="outlineConnect=0;fontColor=#232F3E;gradientColor=none;fillColor=#C7131F;strokeColor=none;dashed=0;verticalLabelPosition=bottom;verticalAlign=top;align=center;html=1;fontSize=12;fontStyle=0;aspect=fixed;pointerEvents=1;shape=mxgraph.aws4.role;labelBackgroundColor=#ffffff;" vertex="1" parent="cjUdcqoHkft8Fekm1WI9-1">
          <mxGeometry x="100.00000000000023" y="690" width="78" height="44" as="geometry" />
        </mxCell>
        <mxCell id="cjUdcqoHkft8Fekm1WI9-7" value="" style="sketch=0;points=[[0,0,0],[0.25,0,0],[0.5,0,0],[0.75,0,0],[1,0,0],[0,1,0],[0.25,1,0],[0.5,1,0],[0.75,1,0],[1,1,0],[0,0.25,0],[0,0.5,0],[0,0.75,0],[1,0.25,0],[1,0.5,0],[1,0.75,0]];outlineConnect=0;fontColor=#232F3E;gradientColor=#4AB29A;gradientDirection=north;fillColor=#116D5B;strokeColor=#ffffff;dashed=0;verticalLabelPosition=bottom;verticalAlign=top;align=center;html=1;fontSize=12;fontStyle=0;aspect=fixed;shape=mxgraph.aws4.resourceIcon;resIcon=mxgraph.aws4.comprehend;" vertex="1" parent="cjUdcqoHkft8Fekm1WI9-1">
          <mxGeometry x="600" y="50" width="78" height="78" as="geometry" />
        </mxCell>
        <mxCell id="cjUdcqoHkft8Fekm1WI9-8" value="" style="sketch=0;points=[[0,0,0],[0.25,0,0],[0.5,0,0],[0.75,0,0],[1,0,0],[0,1,0],[0.25,1,0],[0.5,1,0],[0.75,1,0],[1,1,0],[0,0.25,0],[0,0.5,0],[0,0.75,0],[1,0.25,0],[1,0.5,0],[1,0.75,0]];outlineConnect=0;fontColor=#232F3E;gradientColor=#4AB29A;gradientDirection=north;fillColor=#116D5B;strokeColor=#ffffff;dashed=0;verticalLabelPosition=bottom;verticalAlign=top;align=center;html=1;fontSize=12;fontStyle=0;aspect=fixed;shape=mxgraph.aws4.resourceIcon;resIcon=mxgraph.aws4.elastic_inference_2;" vertex="1" parent="cjUdcqoHkft8Fekm1WI9-1">
          <mxGeometry x="722.5" y="120" width="78" height="78" as="geometry" />
        </mxCell>
        <mxCell id="cjUdcqoHkft8Fekm1WI9-9" value="Amazon SageMaker" style="sketch=0;outlineConnect=0;fontColor=#232F3E;gradientColor=none;strokeColor=#ffffff;fillColor=#232F3E;dashed=0;verticalLabelPosition=middle;verticalAlign=bottom;align=center;html=1;whiteSpace=wrap;fontSize=10;fontStyle=1;spacing=3;shape=mxgraph.aws4.productIcon;prIcon=mxgraph.aws4.sagemaker;" vertex="1" parent="cjUdcqoHkft8Fekm1WI9-1">
          <mxGeometry x="810" y="677" width="80" height="110" as="geometry" />
        </mxCell>
        <mxCell id="cjUdcqoHkft8Fekm1WI9-10" value="" style="sketch=0;points=[[0,0,0],[0.25,0,0],[0.5,0,0],[0.75,0,0],[1,0,0],[0,1,0],[0.25,1,0],[0.5,1,0],[0.75,1,0],[1,1,0],[0,0.25,0],[0,0.5,0],[0,0.75,0],[1,0.25,0],[1,0.5,0],[1,0.75,0]];outlineConnect=0;fontColor=#232F3E;gradientColor=#60A337;gradientDirection=north;fillColor=#277116;strokeColor=#ffffff;dashed=0;verticalLabelPosition=bottom;verticalAlign=top;align=center;html=1;fontSize=12;fontStyle=0;aspect=fixed;shape=mxgraph.aws4.resourceIcon;resIcon=mxgraph.aws4.s3;" vertex="1" parent="cjUdcqoHkft8Fekm1WI9-1">
          <mxGeometry x="290" y="677" width="78" height="78" as="geometry" />
        </mxCell>
        <mxCell id="cjUdcqoHkft8Fekm1WI9-11" value="" style="sketch=0;outlineConnect=0;fontColor=#232F3E;gradientColor=none;fillColor=#3F8624;strokeColor=none;dashed=0;verticalLabelPosition=bottom;verticalAlign=top;align=center;html=1;fontSize=12;fontStyle=0;aspect=fixed;pointerEvents=1;shape=mxgraph.aws4.bucket;" vertex="1" parent="cjUdcqoHkft8Fekm1WI9-1">
          <mxGeometry x="355.93" y="128" width="46.15" height="48" as="geometry" />
        </mxCell>
        <mxCell id="cjUdcqoHkft8Fekm1WI9-12" value="" style="sketch=0;outlineConnect=0;fontColor=#232F3E;gradientColor=none;fillColor=#3F8624;strokeColor=none;dashed=0;verticalLabelPosition=bottom;verticalAlign=top;align=center;html=1;fontSize=12;fontStyle=0;aspect=fixed;pointerEvents=1;shape=mxgraph.aws4.bucket;" vertex="1" parent="cjUdcqoHkft8Fekm1WI9-1">
          <mxGeometry x="355.93" y="570" width="46.15" height="48" as="geometry" />
        </mxCell>
        <mxCell id="cjUdcqoHkft8Fekm1WI9-13" value="Lambda&lt;br&gt;function" style="outlineConnect=0;fontColor=#232F3E;gradientColor=none;fillColor=#D05C17;strokeColor=none;dashed=0;verticalLabelPosition=bottom;verticalAlign=top;align=center;html=1;fontSize=12;fontStyle=0;aspect=fixed;pointerEvents=1;shape=mxgraph.aws4.lambda_function;labelBackgroundColor=#ffffff;" vertex="1" parent="cjUdcqoHkft8Fekm1WI9-1">
          <mxGeometry x="466" y="430" width="78" height="78" as="geometry" />
        </mxCell>
        <mxCell id="cjUdcqoHkft8Fekm1WI9-14" value="" style="sketch=0;outlineConnect=0;fontColor=#232F3E;gradientColor=none;fillColor=#3F8624;strokeColor=none;dashed=0;verticalLabelPosition=bottom;verticalAlign=top;align=center;html=1;fontSize=12;fontStyle=0;aspect=fixed;pointerEvents=1;shape=mxgraph.aws4.bucket;" vertex="1" parent="cjUdcqoHkft8Fekm1WI9-1">
          <mxGeometry x="897.42" y="235" width="46.15" height="48" as="geometry" />
        </mxCell>
        <mxCell id="cjUdcqoHkft8Fekm1WI9-15" value="" style="sketch=0;outlineConnect=0;fontColor=#232F3E;gradientColor=none;fillColor=#3F8624;strokeColor=none;dashed=0;verticalLabelPosition=bottom;verticalAlign=top;align=center;html=1;fontSize=12;fontStyle=0;aspect=fixed;pointerEvents=1;shape=mxgraph.aws4.bucket;" vertex="1" parent="cjUdcqoHkft8Fekm1WI9-1">
          <mxGeometry x="897.42" y="477" width="46.15" height="48" as="geometry" />
        </mxCell>
        <mxCell id="cjUdcqoHkft8Fekm1WI9-16" value="" style="endArrow=none;html=1;rounded=0;" edge="1" parent="cjUdcqoHkft8Fekm1WI9-1">
          <mxGeometry width="50" height="50" relative="1" as="geometry">
            <mxPoint x="80" y="640" as="sourcePoint" />
            <mxPoint x="1080" y="640" as="targetPoint" />
          </mxGeometry>
        </mxCell>
        <mxCell id="cjUdcqoHkft8Fekm1WI9-17" value="Amazon API&lt;br&gt;Gateway&lt;br&gt;" style="outlineConnect=0;fontColor=#232F3E;gradientColor=#945DF2;gradientDirection=north;fillColor=#5A30B5;strokeColor=#ffffff;dashed=0;verticalLabelPosition=bottom;verticalAlign=top;align=center;html=1;fontSize=12;fontStyle=0;aspect=fixed;shape=mxgraph.aws4.resourceIcon;resIcon=mxgraph.aws4.api_gateway;labelBackgroundColor=#ffffff;" vertex="1" parent="cjUdcqoHkft8Fekm1WI9-1">
          <mxGeometry x="340.01" y="320" width="78" height="78" as="geometry" />
        </mxCell>
      </root>
    </mxGraphModel>
  </diagram>
</mxfile>
